<svg xmlns="http://www.w3.org/2000/svg" xmlns:xlink="http://www.w3.org/1999/xlink" width="794" zoomAndPan="magnify" viewBox="0 0 594.95996 842.24997" height="1123" preserveAspectRatio="xMidYMid meet" version="1.0"><defs><clipPath id="bb566ba601"><path d="M 84.878906 179.164062 L 510.5 179.164062 L 510.5 604.785156 L 84.878906 604.785156 Z M 84.878906 179.164062 " clip-rule="nonzero"/></clipPath><clipPath id="da1c6bc396"><path d="M 89 179.164062 L 506 179.164062 L 506 559 L 89 559 Z M 89 179.164062 " clip-rule="nonzero"/></clipPath></defs><g clip-path="url(#bb566ba601)"><path fill="#37aedd" d="M 510.519531 391.984375 C 510.519531 509.523438 415.234375 604.804688 297.699219 604.804688 C 180.164062 604.804688 84.878906 509.523438 84.878906 391.984375 C 84.878906 274.449219 180.164062 179.167969 297.699219 179.167969 C 415.234375 179.167969 510.519531 274.449219 510.519531 391.984375 " fill-opacity="1" fill-rule="nonzero"/></g><g clip-path="url(#da1c6bc396)"><path fill="#a4e288" d="M 390.886719 228.390625 C 386.1875 239.941406 393.070312 248.347656 404.824219 252.542969 C 406.324219 253.074219 407.269531 254.085938 408.566406 253.785156 C 414.972656 252.308594 418.171875 249.445312 419.398438 245.265625 C 419.972656 243.304688 428.40625 246.609375 427.980469 251.425781 C 427.132812 260.988281 418.625 265.824219 406.84375 263.867188 C 398.171875 262.425781 385.976562 256.382812 383.3125 266.289062 C 379.851562 279.15625 400.054688 291.445312 394.871094 295.707031 C 393.574219 296.769531 388.253906 296.171875 386.910156 298.402344 C 382.253906 306.113281 381.148438 319.578125 391.367188 321.320312 C 425.773438 327.195312 411.765625 307.230469 421.859375 312.878906 C 424.984375 314.628906 427.574219 323.363281 427.574219 323.363281 C 411.527344 319.542969 423.703125 336.265625 407.078125 325.460938 C 399.988281 324.910156 394.824219 328.078125 391.574219 332.539062 C 390.039062 337.546875 387.742188 345.734375 387.164062 346.558594 C 381.203125 355.113281 378.644531 345.898438 372.335938 354.0625 C 363.636719 365.328125 362.320312 384.632812 366.683594 398.070312 C 370.367188 409.421875 382.042969 424.617188 394.203125 427.371094 C 399.171875 428.492188 404.023438 425.320312 408.363281 426.070312 C 426.078125 429.132812 419.234375 439.222656 423.390625 451.714844 C 424.941406 456.378906 430.101562 464.703125 426.011719 470.546875 C 422.648438 474.597656 418.636719 477.066406 413.972656 477.953125 C 413.539062 478.515625 411.96875 478.28125 411.605469 479.105469 C 408.839844 485.378906 412.421875 493.203125 413.949219 499.828125 C 412.953125 501.519531 412.015625 503.253906 410.792969 504.78125 C 407.25 509.210938 400.875 510.964844 397.832031 515.421875 C 395.515625 518.820312 394.875 521.023438 396.980469 524.648438 C 398.054688 526.503906 401.523438 525.660156 402.558594 524.238281 C 409.25 515.058594 421.71875 516.644531 428.125 507.316406 C 432.621094 500.773438 434.308594 493.0625 438.386719 486.496094 C 443.320312 481.839844 454.828125 479.636719 456.375 471.515625 C 458.042969 462.730469 466.824219 459.316406 466.40625 444.863281 C 470.984375 431.652344 482.828125 424.402344 487.53125 411.898438 C 490.65625 403.585938 492.628906 394.832031 492.289062 385.890625 C 492.113281 381.214844 490.839844 376.636719 489.46875 372.085938 C 491.210938 365.421875 499.035156 354.9375 505.339844 345.394531 C 491.25 282.324219 449.191406 229.839844 392.832031 201.621094 C 390.074219 210.476562 393.039062 223.105469 390.886719 228.390625 Z M 126.109375 397.050781 C 142.433594 401.617188 140.984375 417.894531 145.695312 435.566406 C 150.921875 455.15625 165.28125 453.847656 189.433594 474.894531 C 210.984375 493.019531 204.5 507.222656 214.261719 527.851562 C 220.261719 540.53125 240.703125 545.34375 249.457031 555.804688 C 251.789062 558.59375 259.277344 561.480469 255.601562 553.78125 C 251.839844 545.898438 253.09375 538.636719 249.832031 535.128906 C 245.089844 529.699219 243.171875 526.949219 245.277344 520.675781 C 247.269531 512.496094 250.578125 505.917969 260.226562 501.800781 C 272.027344 496.773438 278.222656 487.355469 282.335938 475.609375 C 284.105469 462.988281 294.742188 457.898438 294.785156 457.457031 C 295.519531 449.960938 287.699219 445.945312 281.675781 443.964844 C 271.417969 440.59375 263.324219 441.835938 255.382812 433.425781 C 250.695312 428.457031 248.769531 421.125 243.507812 416.757812 C 236.625 411.039062 228.84375 414.265625 220.933594 412.894531 C 214.992188 402.527344 195.820312 394.527344 175.28125 406.488281 C 166.589844 408.800781 161 405.371094 154.574219 395.742188 C 150.59375 384.320312 151.753906 377.992188 147.003906 370.609375 C 140.800781 364.40625 133.671875 364.289062 127.074219 363.917969 C 115.339844 356.898438 121.363281 351.878906 126.902344 346.574219 C 132.96875 341.882812 143.410156 338.292969 149.488281 338.632812 C 153.90625 338.882812 155.390625 339.929688 159.925781 338.367188 C 172.863281 333.898438 171.734375 318.570312 186.078125 309.949219 C 187.089844 309.339844 199.601562 308.816406 206.171875 293.019531 C 207.0625 290.882812 208.269531 280.355469 209.046875 279.6875 C 212.367188 276.835938 219.84375 281.234375 222.511719 282.960938 C 224.125 284.007812 226.964844 282.871094 228 281.492188 C 239.15625 266.554688 228.78125 257.984375 216.296875 248.078125 C 178.808594 218.339844 184.046875 261.851562 165.410156 255.476562 C 162.226562 254.386719 159.941406 251.539062 158.050781 248.027344 C 157.125 243.625 160.363281 229.441406 187.011719 223.273438 C 204.191406 219.296875 199.382812 226.183594 212.945312 227.355469 C 216.359375 227.652344 220.441406 227.25 223.410156 225.285156 C 230.222656 220.773438 222.195312 208.210938 213.535156 196.488281 C 150.28125 223.757812 102.890625 280.804688 89.042969 349.992188 C 99.996094 412.972656 112.402344 391.984375 126.109375 397.050781 Z M 229.28125 190.46875 C 250.761719 183.179688 273.753906 179.164062 297.699219 179.164062 C 304.144531 179.164062 310.507812 179.5 316.808594 180.0625 C 318.449219 188.625 319.242188 198.214844 318.300781 202.691406 C 315.828125 214.472656 302.382812 216.628906 293.949219 222.5625 C 284.640625 229.117188 288.03125 233.265625 281.761719 240.789062 C 281.402344 241.222656 281.375 241.835938 280.917969 242.242188 C 277.460938 245.292969 275.050781 245.59375 270.671875 245.039062 C 261.214844 243.835938 253.03125 233.355469 249.675781 225.292969 C 247.308594 219.59375 248.25 214.160156 246.976562 208.375 C 244.53125 197.273438 238.796875 194.5 229.28125 190.46875 " fill-opacity="1" fill-rule="nonzero"/></g><path fill="#f9d4e6" d="M 175.40625 331.472656 C 163.089844 330.0625 152.15625 337.1875 150.992188 347.382812 C 149.824219 357.578125 158.867188 366.984375 171.183594 368.394531 C 183.503906 369.804688 194.4375 362.679688 195.601562 352.484375 C 196.769531 342.289062 187.726562 332.882812 175.40625 331.472656 Z M 439.644531 379.453125 C 438.476562 389.648438 427.542969 396.769531 415.226562 395.359375 C 402.90625 393.953125 393.863281 384.542969 395.03125 374.347656 C 396.199219 364.152344 407.128906 357.03125 419.449219 358.4375 C 431.765625 359.847656 440.808594 369.257812 439.644531 379.453125 " fill-opacity="1" fill-rule="nonzero"/><path fill="#2d1e1a" d="M 342.945312 376.578125 C 343.929688 375.648438 343.972656 374.101562 343.046875 373.117188 C 342.121094 372.132812 340.570312 372.085938 339.585938 373.015625 C 329.160156 382.84375 312.730469 387.816406 295.628906 386.324219 C 277.089844 384.699219 260.589844 375.898438 250.363281 362.171875 C 249.554688 361.089844 248.023438 360.867188 246.9375 361.671875 C 245.851562 362.480469 245.628906 364.015625 246.4375 365.097656 C 257.496094 379.945312 275.273438 389.457031 295.203125 391.199219 C 297.339844 391.386719 299.46875 391.476562 301.582031 391.476562 C 317.714844 391.476562 332.839844 386.101562 342.945312 376.578125 Z M 218.929688 318.164062 C 211.429688 318.164062 205.328125 324.265625 205.328125 331.761719 C 205.328125 339.261719 211.429688 345.363281 218.929688 345.363281 C 226.425781 345.363281 232.527344 339.261719 232.527344 331.761719 C 232.527344 324.265625 226.425781 318.164062 218.929688 318.164062 Z M 385.296875 349.933594 C 385.296875 357.433594 379.195312 363.535156 371.695312 363.535156 C 364.199219 363.535156 358.097656 357.433594 358.097656 349.933594 C 358.097656 342.433594 364.199219 336.332031 371.695312 336.332031 C 379.195312 336.332031 385.296875 342.433594 385.296875 349.933594 " fill-opacity="1" fill-rule="nonzero"/></svg>