<svg xmlns="http://www.w3.org/2000/svg" xmlns:xlink="http://www.w3.org/1999/xlink" width="794" zoomAndPan="magnify" viewBox="0 0 594.95996 842.24997" height="1123" preserveAspectRatio="xMidYMid meet" version="1.0"><defs><clipPath id="9f239ef414"><path d="M 100 254 L 511 254 L 511 642.257812 L 100 642.257812 Z M 100 254 " clip-rule="nonzero"/></clipPath></defs><g clip-path="url(#9f239ef414)"><path fill="#a4e288" d="M 385.699219 435.941406 C 392.113281 436.695312 398.433594 438.675781 404.5625 440.5625 C 407.675781 441.503906 410.976562 442.542969 414.183594 443.390625 C 441.53125 450.464844 464.828125 447.351562 485.574219 433.769531 C 494.15625 428.113281 503.398438 420.664062 506.890625 407.648438 C 510.378906 394.347656 511.511719 381.523438 510.285156 368.507812 C 510.285156 368.035156 510.285156 367.566406 510.285156 367.09375 C 510.285156 365.207031 510.285156 362.660156 508.023438 360.679688 L 506.511719 359.359375 L 505.285156 360.867188 C 500.476562 367 495.101562 373.414062 488.121094 378.410156 C 481.425781 383.222656 473.222656 387.9375 463.128906 387.085938 C 458.695312 386.710938 455.585938 384.824219 454.734375 381.804688 C 453.792969 378.695312 455.394531 374.734375 458.507812 372.1875 C 461.242188 369.921875 464.636719 368.886719 468.128906 367.847656 L 468.410156 367.753906 C 471.144531 366.90625 473.976562 366.433594 476.992188 365.867188 C 480.765625 365.207031 484.726562 364.546875 488.5 363.039062 C 495.289062 360.304688 500.757812 355.871094 504.53125 350.496094 C 508.304688 344.929688 510.285156 338.515625 509.625 331.820312 C 509.058594 325.21875 506.703125 319.089844 504.816406 314.46875 C 504.816406 314.375 504.722656 314.183594 504.722656 314.089844 C 504.34375 312.015625 503.304688 310.980469 501.609375 310.980469 C 500.476562 310.980469 498.875 311.449219 497.742188 313.902344 C 496.609375 316.070312 495.476562 318.335938 493.402344 319.65625 C 491.894531 320.503906 490.480469 321.445312 489.066406 322.390625 C 484.253906 325.40625 479.257812 328.519531 474.070312 330.785156 C 467.46875 333.707031 462.28125 334.746094 457.1875 334.273438 L 457 334.273438 C 453.320312 333.894531 452.378906 333.519531 452.472656 331.253906 C 452.566406 329.746094 453.414062 328.144531 454.734375 327.011719 C 455.960938 325.972656 457.375 325.40625 458.695312 325.597656 C 463.128906 326.164062 467.5625 325.597656 472.65625 323.992188 L 472.84375 323.898438 C 475.671875 322.957031 477.558594 322.390625 479.066406 321.636719 C 482.179688 320.597656 484.632812 319.371094 486.707031 317.769531 C 496.421875 309.941406 494.535156 299.851562 491.421875 290.984375 C 491.328125 290.605469 491.140625 290.324219 491.046875 289.945312 L 491.046875 289.757812 C 490.855469 288.625 490.667969 287.496094 490.574219 286.363281 C 490.292969 283.0625 488.40625 281.460938 485.105469 281.554688 C 478.597656 281.742188 472.089844 280.042969 465.863281 278.347656 C 463.695312 277.78125 461.335938 277.121094 459.074219 276.648438 C 450.964844 274.761719 441.816406 272.6875 432.667969 272.5 C 421.160156 272.3125 413.523438 276.933594 409.84375 286.175781 C 409.277344 287.496094 408.710938 288.816406 408.144531 290.136719 C 406.921875 292.964844 405.601562 295.984375 404.75 299.09375 C 402.960938 305.886719 399.375 311.261719 393.621094 315.882812 C 390.039062 318.710938 387.679688 319.277344 384.945312 317.957031 C 382.398438 316.730469 381.269531 314.183594 381.269531 309.941406 C 381.363281 301.171875 386.359375 294.191406 391.074219 287.402344 L 391.734375 286.457031 C 398.433594 276.933594 406.921875 268.726562 414.9375 261.089844 L 417.390625 258.824219 L 414.183594 257.976562 C 407.296875 256.183594 401.074219 255.429688 393.8125 254.863281 C 379.664062 253.730469 364.574219 253.355469 349.863281 258.164062 C 342.222656 260.617188 336.847656 264.390625 333.261719 269.574219 C 320.910156 287.777344 315.25 308.902344 316.097656 334.273438 C 316.289062 339.554688 316.757812 344.835938 317.324219 349.929688 C 317.984375 356.625 318.644531 363.507812 318.550781 370.300781 C 318.363281 379.542969 316.097656 386.425781 311.289062 391.898438 C 308.929688 394.632812 307.046875 396.328125 303.742188 395.953125 C 297.519531 395.199219 293.652344 391.804688 291.296875 385.105469 C 286.769531 372.28125 288.84375 358.511719 290.636719 346.4375 C 292.425781 334.554688 296.386719 322.765625 300.160156 311.449219 L 300.347656 310.980469 C 306.480469 292.683594 312.421875 278.347656 319.023438 265.804688 C 319.117188 265.710938 319.210938 265.519531 319.304688 265.425781 C 319.777344 264.859375 320.8125 263.445312 319.871094 261.75 C 318.738281 259.671875 316.664062 260.050781 315.816406 260.238281 C 315.628906 260.238281 315.53125 260.332031 315.34375 260.332031 C 306.949219 261.089844 298.085938 263.070312 288.277344 266.371094 C 278.1875 269.765625 264.417969 274.480469 260.078125 289.851562 C 259.890625 290.605469 259.511719 291.363281 259.039062 292.117188 C 258.664062 292.871094 258.285156 293.625 257.910156 294.472656 C 252.34375 309.1875 249.042969 321.917969 250.929688 335.875 C 252.4375 347.570312 255.175781 359.078125 257.816406 370.207031 C 258.285156 372.28125 258.757812 374.261719 259.230469 376.335938 C 260.738281 382.75 261.117188 388.785156 260.265625 394.632812 C 259.230469 401.613281 256.589844 408.117188 252.15625 414.4375 C 250.648438 416.605469 248.476562 418.398438 245.082031 420.097656 C 242.253906 421.605469 239.234375 421.699219 236.027344 420.285156 C 231.125 418.210938 226.410156 412.835938 224.804688 407.363281 C 220.65625 393.21875 223.296875 378.789062 225.9375 364.828125 C 226.785156 360.113281 228.011719 355.304688 229.144531 350.683594 C 230.652344 344.742188 232.160156 338.613281 233.105469 332.386719 C 235.367188 317.296875 234.238281 304.1875 229.617188 292.304688 C 228.296875 288.722656 226.03125 287.683594 222.449219 288.910156 C 214.054688 291.832031 206.132812 296.078125 198.964844 301.546875 C 189.15625 309.09375 179.441406 317.863281 174.726562 331.066406 C 169.539062 345.589844 166.804688 360.304688 166.617188 374.636719 C 166.332031 398.96875 175.199219 421.132812 193.117188 440.5625 C 203.679688 451.972656 208.867188 464.046875 209.054688 477.4375 C 209.148438 481.117188 207.828125 484.226562 205.472656 486.207031 C 202.925781 488.378906 199.246094 489.132812 195.191406 488.28125 C 187.554688 486.773438 181.707031 482.4375 176.140625 474.136719 C 169.164062 463.761719 164.257812 451.691406 160.390625 435.089844 C 156.335938 417.738281 155.394531 399.820312 155.109375 384.542969 C 154.828125 372.46875 155.863281 360.964844 158.316406 349.550781 L 159.449219 344.175781 L 155.296875 347.761719 C 154.636719 348.324219 154.074219 348.796875 153.601562 349.175781 C 152.5625 350.023438 151.621094 350.871094 150.773438 351.625 C 145.492188 356.625 140.492188 362.378906 134.457031 370.300781 C 123.042969 385.390625 114.273438 403.308594 107.671875 425 C 103.523438 438.769531 101.164062 452.445312 100.785156 465.929688 C 100.316406 480.644531 100.882812 496.207031 108.425781 510.539062 C 112.386719 518.179688 119.367188 528.269531 133.511719 528.648438 L 133.703125 528.648438 C 135.964844 528.742188 138.132812 528.742188 139.644531 530.25 C 140.867188 531.570312 141.058594 531.855469 140.773438 532.515625 C 140.492188 533.175781 140.207031 533.550781 138.984375 533.742188 C 136.53125 534.117188 134.078125 534.777344 131.816406 535.628906 C 129.363281 536.664062 127.476562 538.832031 126.628906 541.570312 C 125.875 544.210938 126.25 546.945312 127.664062 548.925781 C 129.644531 551.753906 131.816406 553.921875 134.265625 555.527344 C 145.960938 563.261719 159.824219 566.9375 176.519531 567.03125 C 178.59375 567.03125 184.253906 567.03125 184.816406 568.070312 C 185.476562 569.109375 182.835938 574.390625 181.894531 576.179688 C 181.894531 576.273438 181.800781 576.371094 181.707031 576.464844 L 180.480469 578.632812 C 173.40625 591.269531 166.050781 604.378906 161.050781 618.527344 C 158.882812 624.65625 156.902344 631.351562 154.828125 639.652344 L 154.074219 642.480469 L 156.996094 641.820312 C 166.425781 639.746094 173.21875 634.652344 177.179688 626.730469 C 179.160156 622.863281 180.574219 618.621094 182.082031 614.660156 C 182.835938 612.679688 183.496094 610.605469 184.347656 608.625 C 188.496094 598.0625 192.550781 588.628906 199.53125 580.898438 C 201.984375 578.253906 205.09375 576.839844 208.019531 577.03125 C 208.679688 577.03125 208.960938 577.878906 209.527344 579.859375 C 209.714844 580.613281 209.90625 581.367188 210.28125 582.121094 C 221.222656 606.832031 239.046875 624.28125 263.191406 634.085938 C 268.28125 636.164062 275.167969 638.613281 282.429688 639.085938 C 282.710938 639.085938 282.902344 639.085938 283.183594 639.085938 C 285.070312 639.273438 287.996094 639.464844 289.691406 636.632812 C 291.390625 633.710938 289.878906 631.164062 288.84375 629.464844 C 288.65625 629.277344 288.558594 628.996094 288.371094 628.710938 L 287.804688 627.863281 C 286.484375 625.601562 285.164062 623.429688 285.257812 620.882812 C 285.257812 619.941406 285.542969 618.714844 286.296875 618.054688 C 287.144531 617.394531 288.464844 617.488281 289.316406 617.679688 C 292.238281 618.242188 294.125 620.320312 296.011719 623.242188 C 304.402344 635.972656 315.25 642.105469 329.019531 642.011719 C 340.621094 641.914062 352.503906 640.03125 365.421875 636.257812 C 388.71875 629.371094 407.296875 615.980469 422.199219 595.230469 L 426.066406 589.855469 L 419.933594 592.496094 C 419.179688 592.78125 418.613281 593.0625 418.144531 593.25 C 417.292969 593.628906 416.730469 593.816406 416.164062 594.101562 C 405.316406 599.285156 393.339844 602.777344 380.511719 604.472656 C 364.859375 606.453125 351.652344 604.945312 339.960938 599.945312 C 336.941406 598.625 331.941406 595.984375 333.167969 592.683594 C 333.261719 592.496094 333.261719 592.402344 333.359375 592.214844 C 334.679688 589.574219 338.355469 588.628906 343.542969 589.667969 C 363.539062 593.535156 381.832031 594.101562 399.660156 591.363281 C 414.9375 589.007812 427.101562 584.101562 436.816406 576.179688 C 451.339844 564.484375 459.921875 548.925781 465.769531 536.570312 C 467.84375 532.136719 470.390625 526.289062 471.335938 519.6875 L 471.902344 515.820312 L 468.601562 517.800781 C 443.605469 532.796875 415.125 540.34375 379.097656 541.664062 L 377.496094 541.757812 L 377.496094 542.039062 C 377.402344 542.039062 377.308594 542.039062 377.308594 542.039062 C 376.363281 541.570312 375.324219 541.664062 374.664062 541.757812 C 374.476562 541.757812 374.101562 541.757812 374.003906 541.757812 C 372.78125 541.570312 371.648438 541.472656 370.515625 541.472656 L 369.855469 541.472656 C 368.535156 541.472656 367.121094 541.378906 365.800781 541.378906 C 365.519531 541.378906 365.328125 541.285156 365.046875 541.285156 C 364.667969 541.191406 364.292969 541.191406 363.914062 541.097656 C 362.6875 540.910156 361.460938 540.910156 360.238281 541.003906 C 342.789062 539.871094 327.980469 536.289062 314.871094 529.96875 C 306.386719 525.914062 300.253906 521.386719 295.539062 515.820312 C 292.144531 511.859375 291.105469 506.296875 292.804688 501.390625 C 294.40625 496.867188 297.800781 493.753906 302.328125 492.714844 C 309.496094 491.207031 316.664062 492.339844 324.304688 496.207031 C 327.605469 497.902344 331 499.601562 334.207031 501.390625 C 346.277344 507.710938 358.726562 514.3125 372.589844 517.707031 L 374.195312 518.085938 C 386.550781 521.199219 399.28125 524.308594 412.296875 524.96875 C 427.386719 525.722656 443.230469 522.613281 460.675781 515.632812 C 474.351562 510.164062 482.179688 502.429688 486.046875 490.640625 C 490.101562 478.285156 494.722656 464.234375 498.402344 450.277344 C 498.777344 449.050781 499.0625 447.730469 499.4375 446.503906 C 500.855469 441.410156 502.363281 436.222656 502.644531 430.46875 L 502.929688 426.507812 L 499.722656 428.867188 C 498.496094 429.808594 497.269531 430.660156 496.136719 431.601562 C 493.6875 433.488281 491.328125 435.375 488.875 436.882812 C 472.75 446.878906 456.621094 454.519531 440.210938 459.894531 C 425.78125 464.609375 411.070312 467.535156 395.980469 468.855469 C 381.078125 470.082031 369.289062 468.101562 358.820312 462.628906 C 354.765625 460.460938 352.3125 457.539062 351.84375 453.953125 C 351.277344 450.179688 352.878906 446.125 356.273438 442.730469 C 365.140625 434.808594 375.609375 434.808594 385.699219 435.941406 Z M 391.832031 380.484375 C 395.414062 377.65625 399.660156 376.808594 405.035156 376.429688 C 412.203125 375.957031 419.273438 376.996094 425.972656 379.542969 C 430.214844 381.335938 430.027344 382.9375 429.933594 383.597656 C 429.742188 385.296875 428.421875 386.332031 424.933594 387.558594 C 414.75 391.144531 406.164062 392.652344 398.148438 392.085938 C 396.359375 391.992188 394.753906 391.804688 393.246094 391.144531 C 390.886719 390.105469 389.472656 388.3125 389.191406 386.238281 C 388.90625 384.164062 389.945312 382.089844 391.832031 380.484375 Z M 166.617188 518.085938 C 165.578125 518.746094 164.164062 518.652344 162.75 517.992188 C 162.75 517.992188 162.65625 517.992188 162.65625 517.992188 C 159.917969 516.578125 158.316406 514.21875 156.523438 510.824219 C 154.261719 506.390625 152.941406 501.582031 152.65625 496.582031 C 152.65625 493.753906 153.507812 493.46875 153.789062 493.375 C 154.167969 493.28125 154.542969 493.28125 155.015625 493.566406 C 155.582031 493.847656 156.242188 494.414062 157.183594 495.449219 C 162.371094 501.015625 165.671875 506.011719 167.558594 511.390625 C 168.03125 512.617188 168.3125 513.558594 168.3125 514.597656 C 168.40625 516.105469 167.746094 517.425781 166.617188 518.085938 Z M 245.269531 459.046875 C 245.175781 460.367188 245.082031 461.40625 244.609375 462.347656 C 243.949219 463.761719 242.820312 464.707031 241.5 464.894531 C 240.839844 464.988281 240.273438 464.894531 239.613281 464.515625 C 239.046875 464.234375 238.480469 463.761719 237.914062 463.101562 C 236.027344 460.648438 235.460938 457.820312 235.367188 454.046875 C 235.085938 449.050781 235.933594 444.144531 237.726562 439.523438 C 238.859375 436.882812 239.707031 437.074219 240.085938 437.074219 C 240.273438 437.074219 240.460938 437.167969 240.554688 437.261719 C 241.214844 437.636719 241.6875 438.488281 242.347656 440.375 C 244.800781 447.445312 245.648438 453.386719 245.269531 459.046875 Z M 306.855469 568.730469 L 307.421875 569.011719 C 309.402344 570.050781 309.6875 570.332031 309.402344 571.371094 C 309.308594 571.84375 309.121094 572.3125 308.929688 572.691406 C 308.269531 574.011719 307.234375 574.859375 305.628906 575.238281 C 298.746094 577.125 292.617188 576.746094 286.863281 574.105469 C 284.503906 573.070312 282.242188 571.84375 279.507812 570.332031 C 278.089844 569.578125 276.675781 568.824219 275.074219 567.976562 C 274.320312 567.503906 273.46875 567.03125 272.621094 566.5625 C 269.601562 564.957031 265.925781 562.882812 262.71875 560.242188 C 258.851562 557.128906 259.230469 554.960938 259.984375 553.453125 C 261.304688 550.621094 263.851562 549.492188 267.527344 550.058594 C 269.601562 550.339844 272.054688 550.8125 274.320312 551.941406 C 274.414062 551.941406 274.414062 552.039062 274.507812 552.039062 C 284.976562 557.414062 295.539062 562.882812 306.855469 568.730469 Z M 342.128906 353.890625 C 341.84375 355.117188 341.46875 356.152344 340.902344 357.003906 C 339.960938 358.324219 338.640625 358.984375 337.414062 358.886719 C 336.1875 358.792969 335.054688 357.945312 334.300781 356.53125 C 332.886719 353.796875 332.980469 350.777344 333.453125 347.101562 C 334.113281 342.382812 335.808594 337.855469 338.261719 333.707031 C 338.261719 333.800781 338.261719 333.894531 338.261719 333.992188 C 338.355469 334.460938 338.921875 333.519531 338.921875 333.332031 C 338.921875 333.046875 338.921875 332.859375 339.015625 332.574219 C 340.335938 330.972656 340.996094 331.160156 341.28125 331.253906 C 342.128906 331.539062 342.601562 332.480469 342.882812 334.839844 C 343.828125 342.476562 343.636719 348.515625 342.128906 353.890625 Z M 342.128906 353.890625 " fill-opacity="1" fill-rule="nonzero"/></g><path fill="#0f753c" d="M 314.210938 303.433594 C 315.0625 305.132812 316.289062 306.355469 317.796875 307.113281 C 318.550781 307.488281 319.398438 307.773438 320.34375 307.773438 C 322.890625 307.960938 325.339844 306.734375 327.132812 304.375 C 328.078125 303.054688 328.546875 301.546875 329.019531 300.132812 C 330.71875 294.191406 330.90625 287.683594 329.867188 279.667969 C 329.585938 277.78125 329.113281 274.292969 325.8125 273.066406 C 324.773438 272.6875 323.738281 272.6875 322.792969 273.066406 C 325.53125 250.335938 335.902344 229.589844 353.539062 214.402344 C 353.730469 214.214844 354.105469 213.179688 353.632812 213.554688 C 336.46875 226.476562 321.378906 251.183594 321.378906 273.726562 C 320.53125 274.292969 319.683594 275.234375 318.832031 276.460938 C 315.910156 281.175781 314.023438 286.363281 313.175781 291.738281 C 312.515625 295.324219 312.136719 299.472656 314.210938 303.433594 Z M 316.664062 292.398438 C 317.324219 287.683594 319.023438 283.15625 321.472656 279.007812 C 321.472656 279.101562 321.472656 279.195312 321.472656 279.289062 C 321.570312 279.761719 322.132812 278.820312 322.132812 278.628906 C 322.132812 278.347656 322.132812 278.160156 322.230469 277.875 C 323.550781 276.273438 324.210938 276.460938 324.492188 276.554688 C 325.339844 276.839844 325.8125 277.78125 326.097656 280.140625 C 327.132812 287.589844 326.851562 293.625 325.339844 299.09375 C 324.964844 300.320312 324.679688 301.359375 324.113281 302.207031 C 323.171875 303.527344 321.851562 304.1875 320.625 304.09375 C 319.398438 304 318.269531 303.152344 317.511719 301.734375 C 316.097656 299 316.191406 296.078125 316.664062 292.398438 Z M 416.917969 329.371094 C 417.390625 326.066406 415.3125 323.425781 410.691406 321.445312 C 403.335938 318.710938 395.792969 317.582031 388.152344 318.050781 C 383.25 318.335938 377.589844 318.996094 372.78125 322.863281 C 369.855469 325.21875 368.347656 328.519531 368.820312 331.914062 C 369.195312 335.121094 371.363281 337.953125 374.664062 339.554688 C 374.761719 339.648438 374.949219 339.648438 375.042969 339.742188 C 377.117188 340.6875 379.097656 340.875 381.269531 341.0625 C 389.851562 341.628906 398.902344 340.121094 409.5625 336.347656 C 411.917969 335.40625 416.351562 333.800781 416.917969 329.371094 Z M 381.457031 337.292969 C 379.664062 337.195312 378.0625 337.007812 376.550781 336.347656 C 374.195312 335.3125 372.78125 333.519531 372.496094 331.445312 C 372.214844 329.371094 373.25 327.292969 375.136719 325.785156 C 378.722656 322.957031 382.964844 322.105469 388.339844 321.730469 C 395.507812 321.257812 402.582031 322.390625 409.277344 324.84375 C 413.523438 326.632812 413.332031 328.238281 413.238281 328.898438 C 413.050781 330.59375 411.730469 331.632812 408.242188 332.859375 C 398.054688 336.441406 389.566406 337.855469 381.457031 337.292969 Z M 369.007812 381.144531 C 375.421875 381.898438 381.738281 383.882812 387.871094 385.765625 C 390.980469 386.710938 394.28125 387.746094 397.488281 388.597656 C 424.839844 395.667969 448.132812 392.558594 468.882812 378.976562 C 477.464844 373.316406 486.707031 365.867188 490.195312 352.851562 C 493.6875 339.554688 494.816406 326.726562 493.59375 313.714844 C 493.59375 313.242188 493.59375 312.769531 493.59375 312.300781 C 493.59375 310.414062 493.59375 307.960938 491.328125 305.886719 L 489.820312 304.566406 L 488.59375 306.074219 C 483.785156 312.203125 478.40625 318.617188 471.429688 323.617188 C 464.734375 328.425781 456.527344 333.140625 446.4375 332.292969 C 442.003906 331.914062 438.890625 330.03125 438.042969 327.011719 C 437.101562 323.992188 438.703125 319.9375 441.816406 317.390625 C 444.550781 315.128906 447.945312 314.089844 451.433594 312.960938 L 451.71875 312.863281 C 454.453125 312.015625 457.28125 311.542969 460.300781 310.980469 C 464.074219 310.320312 468.035156 309.65625 471.804688 308.148438 C 485.574219 302.585938 494.0625 290.042969 492.933594 276.933594 C 492.367188 270.332031 490.007812 264.199219 488.121094 259.578125 C 488.121094 259.484375 488.027344 259.296875 488.027344 259.203125 C 487.652344 257.128906 486.613281 256.089844 484.914062 256.183594 C 483.785156 256.183594 482.179688 256.65625 480.953125 259.109375 C 479.824219 261.277344 478.691406 263.539062 476.617188 264.859375 C 475.105469 265.710938 473.691406 266.652344 472.277344 267.59375 C 467.46875 270.613281 462.46875 273.726562 457.28125 275.988281 C 450.679688 278.914062 445.492188 279.949219 440.402344 279.480469 L 440.304688 279.480469 C 436.628906 279.101562 435.683594 278.722656 435.78125 276.460938 C 435.78125 275.046875 436.722656 273.347656 438.042969 272.214844 C 439.269531 271.179688 440.683594 270.613281 442.003906 270.800781 C 446.4375 271.367188 450.871094 270.800781 455.960938 269.199219 L 456.152344 269.105469 C 458.980469 268.160156 460.960938 267.59375 462.375 266.839844 C 465.488281 265.898438 467.9375 264.578125 470.015625 262.972656 C 479.726562 255.144531 477.84375 245.054688 474.730469 236.191406 C 474.636719 235.8125 474.445312 235.53125 474.351562 235.152344 L 474.351562 234.964844 C 474.164062 233.832031 473.976562 232.699219 473.882812 231.570312 C 473.597656 228.269531 471.710938 226.664062 468.410156 226.757812 C 461.902344 226.949219 455.394531 225.25 449.171875 223.550781 C 447.003906 222.988281 444.644531 222.328125 442.382812 221.855469 C 434.269531 219.96875 425.121094 217.894531 415.972656 217.800781 C 404.46875 217.609375 396.828125 222.230469 393.152344 231.472656 C 392.585938 232.792969 392.019531 234.113281 391.453125 235.433594 C 390.226562 238.265625 388.90625 241.28125 388.058594 244.394531 C 386.265625 251.28125 382.683594 256.5625 376.929688 261.183594 C 373.34375 264.011719 370.988281 264.578125 368.253906 263.257812 C 365.707031 262.03125 364.574219 259.484375 364.574219 255.242188 C 364.667969 246.46875 369.574219 239.492188 374.382812 232.699219 L 375.042969 231.757812 C 381.738281 222.230469 390.226562 214.027344 398.242188 206.386719 L 400.695312 204.125 L 397.488281 203.277344 C 390.605469 201.484375 384.378906 200.730469 377.117188 200.164062 C 362.972656 199.03125 347.882812 198.652344 333.167969 203.464844 C 325.53125 205.917969 320.152344 209.6875 316.570312 214.875 C 304.214844 232.984375 298.558594 254.203125 299.40625 279.574219 C 299.59375 284.855469 300.066406 290.136719 300.632812 295.230469 C 301.292969 301.925781 301.953125 308.808594 301.859375 315.601562 C 301.761719 324.84375 299.40625 331.726562 294.597656 337.195312 C 292.238281 339.933594 290.351562 341.628906 287.050781 341.253906 C 280.828125 340.496094 276.960938 337.101562 274.601562 330.40625 C 270.074219 317.582031 272.148438 303.8125 273.941406 291.738281 C 275.734375 279.855469 279.695312 268.066406 283.46875 256.75 L 283.65625 256.277344 C 289.785156 237.980469 295.726562 223.648438 302.328125 211.101562 C 302.421875 211.007812 302.519531 210.914062 302.613281 210.726562 C 303.082031 210.160156 304.121094 208.746094 303.179688 207.046875 C 302.046875 204.972656 299.972656 205.351562 299.121094 205.539062 C 298.933594 205.539062 298.746094 205.632812 298.652344 205.632812 C 290.257812 206.386719 281.390625 208.367188 271.585938 211.667969 C 261.492188 215.0625 247.628906 219.78125 243.386719 235.152344 C 243.195312 235.90625 242.820312 236.660156 242.347656 237.511719 C 241.96875 238.265625 241.59375 239.019531 241.214844 239.867188 C 235.652344 254.582031 232.351562 267.3125 234.238281 281.269531 C 235.746094 292.964844 238.480469 304.472656 241.121094 315.601562 C 241.59375 317.675781 242.066406 319.65625 242.535156 321.730469 C 245.835938 335.875 243.574219 348.324219 235.464844 359.738281 C 233.953125 361.90625 231.785156 363.699219 228.390625 365.394531 C 225.558594 366.90625 222.542969 367 219.335938 365.679688 C 214.433594 363.605469 209.714844 358.226562 208.207031 352.757812 C 204.058594 338.613281 206.699219 324.183594 209.339844 310.222656 C 210.1875 305.507812 211.414062 300.699219 212.546875 296.078125 C 214.054688 290.136719 215.5625 284.003906 216.507812 277.78125 C 218.769531 262.691406 217.636719 249.582031 213.015625 237.699219 C 211.601562 234.113281 209.433594 233.078125 205.847656 234.304688 C 197.457031 237.226562 189.535156 241.472656 182.367188 246.941406 C 172.558594 254.484375 162.84375 263.257812 158.128906 276.460938 C 152.941406 291.078125 150.207031 305.695312 150.015625 320.03125 C 149.734375 344.363281 158.597656 366.527344 176.519531 385.957031 C 187.082031 397.367188 192.269531 409.4375 192.457031 422.832031 C 192.550781 426.507812 191.230469 429.621094 188.875 431.601562 C 186.328125 433.769531 182.648438 434.527344 178.59375 433.675781 C 170.953125 432.167969 165.105469 427.828125 159.542969 419.53125 C 152.46875 409.15625 147.660156 397.085938 143.792969 380.484375 C 139.738281 363.132812 138.792969 345.214844 138.511719 329.933594 C 138.226562 317.863281 139.265625 306.355469 141.71875 294.945312 L 142.847656 289.570312 L 138.699219 293.152344 C 138.039062 293.71875 137.566406 294.191406 137.003906 294.570312 C 135.964844 295.417969 135.023438 296.265625 134.171875 297.019531 C 128.890625 302.019531 123.894531 307.773438 117.855469 315.695312 C 106.445312 330.785156 97.675781 348.703125 91.074219 370.394531 C 86.921875 384.164062 84.566406 397.839844 84.1875 411.324219 C 83.714844 426.039062 84.28125 441.597656 91.828125 455.933594 C 95.789062 463.574219 102.765625 473.664062 116.914062 474.042969 L 117.101562 474.042969 C 119.367188 474.136719 121.535156 474.136719 123.042969 475.644531 C 124.269531 476.964844 124.457031 477.25 124.175781 477.910156 C 123.894531 478.570312 123.609375 478.945312 122.382812 479.136719 C 119.933594 479.511719 117.480469 480.171875 115.214844 481.019531 C 112.765625 482.058594 110.878906 484.226562 110.03125 486.960938 C 109.273438 489.605469 109.652344 492.339844 111.066406 494.320312 C 113.046875 497.148438 115.214844 499.316406 117.761719 500.921875 C 129.457031 508.65625 143.320312 512.332031 160.015625 512.425781 C 162.089844 512.425781 167.652344 512.425781 168.3125 513.464844 C 168.972656 514.5 166.238281 519.78125 165.390625 521.574219 C 165.390625 521.667969 165.296875 521.761719 165.203125 521.859375 L 163.976562 524.027344 C 156.902344 536.664062 149.546875 549.773438 144.546875 563.921875 C 142.378906 570.050781 140.398438 576.746094 138.324219 585.046875 L 137.566406 587.875 L 140.492188 587.214844 C 149.921875 585.140625 156.714844 580.046875 160.675781 572.125 C 162.65625 568.257812 164.164062 564.109375 165.578125 560.054688 C 166.332031 558.074219 166.992188 556 167.84375 554.019531 C 171.992188 543.453125 176.046875 534.023438 183.027344 526.289062 C 185.476562 523.554688 188.589844 522.234375 191.515625 522.421875 C 192.175781 522.519531 192.457031 523.273438 193.023438 525.253906 C 193.210938 526.007812 193.496094 526.761719 193.777344 527.515625 C 204.71875 552.226562 222.542969 569.671875 246.6875 579.480469 C 251.777344 581.558594 258.664062 584.007812 265.925781 584.480469 C 266.207031 584.480469 266.398438 584.480469 266.679688 584.574219 C 268.566406 584.761719 271.488281 584.953125 273.1875 582.121094 C 274.886719 579.199219 273.375 576.652344 272.339844 574.953125 C 272.148438 574.671875 272.054688 574.484375 271.867188 574.199219 L 271.394531 573.351562 C 269.980469 571.089844 268.753906 568.917969 268.847656 566.371094 C 268.847656 565.429688 269.132812 564.203125 269.886719 563.542969 C 270.734375 562.882812 272.054688 562.976562 273 563.167969 C 275.921875 563.730469 277.808594 565.808594 279.695312 568.730469 C 288.089844 581.460938 298.933594 587.59375 312.703125 587.5 C 324.304688 587.402344 336.1875 585.519531 349.109375 581.746094 C 372.402344 574.859375 390.980469 561.46875 405.882812 540.71875 L 409.75 535.34375 L 403.621094 537.984375 C 402.863281 538.269531 402.300781 538.550781 401.828125 538.738281 C 400.980469 539.117188 400.414062 539.304688 399.847656 539.589844 C 389 544.773438 377.023438 548.265625 364.199219 549.960938 C 348.542969 551.941406 335.339844 550.433594 323.644531 545.4375 C 320.625 544.113281 315.628906 541.378906 316.851562 538.171875 C 317.890625 535.25 321.757812 534.117188 327.226562 535.15625 C 347.222656 539.023438 365.519531 539.589844 383.34375 536.851562 C 398.621094 534.496094 410.785156 529.589844 420.5 521.667969 C 435.023438 509.976562 443.605469 494.320312 449.453125 482.058594 C 451.53125 477.625 454.074219 471.777344 455.019531 465.175781 L 455.585938 461.308594 L 452.285156 463.289062 C 427.292969 478.285156 398.808594 485.832031 362.78125 487.152344 L 361.085938 487.246094 L 361.085938 487.527344 C 360.992188 487.527344 360.898438 487.527344 360.898438 487.527344 C 359.953125 487.058594 358.917969 487.152344 358.257812 487.246094 C 358.066406 487.246094 357.691406 487.246094 357.59375 487.246094 C 356.371094 487.058594 355.238281 486.960938 354.105469 486.960938 L 353.445312 486.960938 C 352.125 486.960938 350.710938 486.867188 349.390625 486.867188 C 349.109375 486.867188 348.917969 486.773438 348.636719 486.773438 C 348.257812 486.773438 347.882812 486.679688 347.503906 486.585938 C 346.277344 486.398438 345.050781 486.398438 343.828125 486.585938 C 326.378906 485.453125 311.570312 481.777344 298.460938 475.550781 C 289.976562 471.496094 283.84375 466.96875 279.128906 461.40625 C 275.734375 457.441406 274.695312 451.878906 276.394531 446.976562 C 277.902344 442.449219 281.390625 439.335938 285.917969 438.296875 C 293.085938 436.789062 300.253906 437.921875 307.894531 441.789062 C 311.195312 443.484375 314.589844 445.277344 317.796875 446.976562 C 329.867188 453.292969 342.316406 459.894531 356.179688 463.289062 L 357.785156 463.667969 C 370.140625 466.78125 382.871094 469.890625 395.886719 470.550781 C 410.976562 471.308594 426.820312 468.195312 444.265625 461.214844 C 457.941406 455.746094 465.769531 448.011719 469.636719 436.222656 C 473.691406 423.867188 478.3125 409.816406 481.992188 395.859375 C 482.367188 394.632812 482.652344 393.3125 483.027344 392.085938 C 484.445312 386.992188 485.953125 381.710938 486.332031 376.054688 L 486.613281 372.09375 L 483.40625 374.449219 C 482.179688 375.394531 480.953125 376.242188 479.824219 377.183594 C 477.371094 379.070312 475.011719 380.957031 472.5625 382.464844 C 442.191406 401.234375 411.824219 411.703125 379.664062 414.34375 C 364.761719 415.570312 352.972656 413.589844 342.507812 408.117188 C 338.449219 406.042969 336 403.027344 335.527344 399.441406 C 334.960938 395.667969 336.5625 391.613281 339.960938 388.21875 C 348.351562 380.109375 358.914062 380.015625 369.007812 381.144531 Z M 331.941406 400.101562 C 332.414062 403.402344 334.394531 408.023438 340.902344 411.417969 C 352.03125 417.171875 364.480469 419.34375 380.042969 418.023438 C 412.296875 415.378906 444.078125 404.441406 474.542969 385.578125 C 477.183594 383.976562 479.632812 382.089844 482.179688 380.109375 C 482.179688 380.109375 482.273438 380.015625 482.273438 380.015625 C 481.707031 383.785156 480.671875 387.464844 479.632812 391.046875 C 479.257812 392.367188 478.878906 393.59375 478.597656 394.914062 C 474.917969 408.777344 470.296875 422.738281 466.335938 435.089844 C 462.847656 445.75 455.679688 452.820312 443.042969 457.820312 C 426.066406 464.609375 410.785156 467.535156 396.167969 466.875 C 383.53125 466.308594 370.988281 463.101562 358.820312 460.085938 L 357.21875 459.707031 C 343.730469 456.40625 331.472656 449.898438 319.683594 443.675781 C 316.382812 441.976562 313.082031 440.183594 309.6875 438.488281 C 301.292969 434.242188 293.277344 433.015625 285.257812 434.714844 C 279.507812 435.941406 274.980469 440.089844 273 445.75 C 270.921875 451.878906 272.148438 458.765625 276.394531 463.761719 C 281.488281 469.796875 287.992188 474.609375 296.953125 478.851562 C 310.535156 485.359375 325.8125 489.039062 343.828125 490.265625 L 344.203125 490.265625 C 345.050781 490.167969 345.996094 490.167969 346.9375 490.265625 C 347.316406 490.359375 347.789062 490.359375 348.164062 490.453125 C 348.449219 490.453125 348.636719 490.546875 348.917969 490.546875 L 349.109375 490.546875 C 350.523438 490.640625 351.9375 490.640625 353.257812 490.640625 L 354.011719 490.640625 C 355.050781 490.640625 355.992188 490.640625 356.933594 490.828125 C 357.5 490.925781 358.066406 490.925781 358.539062 490.828125 C 358.632812 490.828125 358.820312 490.828125 358.914062 490.828125 L 359.292969 491.585938 L 360.613281 491.300781 C 361.367188 491.113281 362.027344 491.113281 362.6875 491.113281 L 364.953125 491.207031 L 364.859375 490.734375 C 398.902344 489.320312 426.347656 482.246094 450.585938 468.476562 C 449.453125 473.003906 447.664062 477.15625 446.058594 480.359375 C 440.304688 492.339844 432.007812 507.429688 418.050781 518.652344 C 408.710938 526.195312 397.394531 530.722656 382.589844 533.082031 C 365.140625 535.722656 347.222656 535.15625 327.699219 531.382812 C 320.34375 529.96875 314.871094 531.949219 313.175781 536.757812 C 312.230469 539.398438 312.136719 544.398438 322.039062 548.640625 C 334.300781 553.921875 348.257812 555.527344 364.574219 553.453125 C 376.644531 551.941406 388.058594 548.738281 398.527344 544.117188 C 384.945312 560.902344 368.347656 572.03125 348.070312 578.066406 C 335.527344 581.746094 323.925781 583.632812 312.703125 583.632812 C 300.066406 583.726562 290.539062 578.257812 282.808594 566.46875 C 280.730469 563.261719 278.1875 560.242188 273.753906 559.394531 C 270.640625 558.734375 268.753906 559.675781 267.71875 560.527344 C 266.679688 561.375 265.359375 563.070312 265.265625 566.183594 C 265.171875 569.769531 266.867188 572.691406 268.378906 575.144531 L 268.847656 575.992188 C 269.039062 576.273438 269.132812 576.558594 269.320312 576.746094 C 270.453125 578.539062 270.640625 579.199219 270.167969 580.046875 C 269.699219 580.800781 269.039062 580.898438 267.152344 580.707031 C 266.867188 580.707031 266.585938 580.707031 266.300781 580.613281 C 259.605469 580.238281 253.476562 577.972656 248.289062 575.898438 C 224.996094 566.46875 207.925781 549.679688 197.359375 525.914062 C 197.171875 525.441406 196.984375 524.78125 196.796875 524.121094 C 196.230469 522.046875 195.285156 518.933594 191.984375 518.652344 C 187.835938 518.273438 183.6875 520.160156 180.480469 523.648438 C 173.027344 531.855469 168.878906 541.570312 164.539062 552.507812 C 163.691406 554.582031 163.03125 556.660156 162.277344 558.640625 C 160.863281 562.601562 159.449219 566.5625 157.5625 570.332031 C 154.449219 576.558594 149.640625 580.613281 142.753906 582.6875 C 144.546875 575.898438 146.246094 570.238281 148.132812 564.957031 C 153.035156 551.1875 160.296875 538.171875 167.277344 525.628906 L 168.503906 523.367188 C 168.597656 523.273438 168.691406 523.085938 168.691406 522.988281 C 171.707031 517.046875 172.933594 513.746094 171.519531 511.390625 C 171.046875 510.636719 170.386719 510.070312 169.632812 509.691406 C 167.558594 508.65625 164.351562 508.558594 160.109375 508.558594 C 144.167969 508.464844 130.964844 504.976562 119.835938 497.621094 C 117.761719 496.207031 115.875 494.414062 114.179688 491.960938 C 113.425781 490.828125 113.234375 489.320312 113.707031 487.71875 C 114.179688 486.019531 115.3125 484.699219 116.726562 484.132812 C 118.613281 483.378906 120.78125 482.71875 122.949219 482.4375 C 125.402344 482.058594 126.910156 480.925781 127.664062 478.851562 C 128.796875 475.929688 126.816406 473.949219 125.683594 472.722656 C 123.136719 470.175781 119.835938 470.082031 117.195312 469.988281 L 117.007812 469.988281 C 107.578125 469.703125 100.785156 464.800781 95.128906 453.859375 C 88.054688 440.375 87.488281 425.285156 87.960938 411.136719 C 88.335938 398.027344 90.601562 384.636719 94.75 371.242188 C 101.164062 349.929688 109.746094 332.386719 120.96875 317.675781 C 126.816406 309.941406 131.722656 304.28125 136.90625 299.472656 C 137.003906 299.378906 137.097656 299.285156 137.285156 299.09375 C 135.492188 309.09375 134.738281 319.089844 135.023438 329.652344 C 135.398438 345.121094 136.246094 363.226562 140.398438 380.957031 C 144.359375 398.027344 149.453125 410.476562 156.714844 421.226562 C 162.75 430.1875 169.632812 435.1875 178.121094 436.882812 C 183.308594 437.921875 188.023438 436.882812 191.515625 434.054688 C 194.71875 431.320312 196.511719 427.265625 196.417969 422.453125 C 196.230469 408.117188 190.664062 395.292969 179.535156 383.125 C 162.277344 364.359375 153.695312 343.042969 153.976562 319.65625 C 154.167969 305.695312 156.808594 291.457031 161.804688 277.214844 C 166.144531 264.859375 175.480469 256.5625 184.816406 249.394531 C 191.609375 244.207031 199.152344 240.058594 207.265625 237.320312 C 209.054688 236.757812 209.148438 236.757812 209.808594 238.546875 C 214.148438 249.863281 215.1875 262.410156 213.109375 276.839844 C 212.167969 282.875 210.660156 288.910156 209.246094 294.851562 C 208.113281 299.566406 206.886719 304.375 205.945312 309.1875 C 203.398438 322.863281 200.472656 338.421875 204.90625 353.417969 C 206.792969 359.925781 212.261719 366.246094 218.203125 368.695312 C 222.449219 370.488281 226.597656 370.300781 230.464844 368.320312 C 232.820312 367 236.3125 364.925781 238.765625 361.53125 C 247.347656 349.363281 249.890625 335.59375 246.402344 320.503906 C 245.929688 318.429688 245.460938 316.449219 244.988281 314.375 C 242.347656 303.339844 239.613281 291.929688 238.105469 280.421875 C 236.3125 267.21875 239.519531 255.050781 244.894531 240.8125 C 245.082031 240.246094 245.460938 239.585938 245.835938 238.925781 C 246.308594 237.980469 246.875 237.039062 247.15625 235.90625 C 250.648438 223.457031 260.925781 219.027344 273 214.96875 C 282.523438 211.761719 291.105469 209.78125 299.21875 209.121094 C 299.3125 209.121094 299.40625 209.121094 299.5 209.121094 C 299.5 209.21875 299.40625 209.21875 299.40625 209.3125 C 292.710938 222.042969 286.769531 236.566406 280.542969 255.050781 L 280.355469 255.523438 C 276.488281 267.03125 272.433594 278.914062 270.640625 291.171875 C 268.753906 303.714844 266.585938 317.863281 271.394531 331.539062 C 274.226562 339.554688 279.222656 343.894531 286.863281 344.835938 C 292.332031 345.496094 295.445312 342.101562 297.613281 339.554688 C 302.988281 333.519531 305.628906 325.691406 305.722656 315.601562 C 305.820312 308.621094 305.160156 301.640625 304.5 294.851562 C 304.027344 289.757812 303.460938 284.570312 303.273438 279.382812 C 302.421875 254.863281 307.800781 234.398438 319.777344 216.855469 C 322.890625 212.328125 327.605469 209.121094 334.394531 206.859375 C 348.542969 202.238281 363.160156 202.617188 376.929688 203.746094 C 382.777344 204.21875 387.964844 204.785156 393.433594 206.011719 C 385.984375 213.082031 378.4375 220.722656 372.214844 229.589844 L 371.554688 230.53125 C 366.460938 237.792969 361.085938 245.242188 360.992188 255.148438 C 360.894531 260.710938 362.875 264.578125 366.742188 266.464844 C 371.929688 269.011719 376.175781 266.464844 379.382812 263.917969 C 385.699219 258.824219 389.753906 252.789062 391.734375 245.242188 C 392.492188 242.414062 393.714844 239.679688 394.941406 236.851562 C 395.507812 235.53125 396.167969 234.113281 396.640625 232.792969 C 399.753906 224.96875 406.070312 221.289062 415.972656 221.382812 C 424.746094 221.476562 433.328125 223.457031 441.625 225.34375 C 443.796875 225.816406 446.058594 226.476562 448.226562 227.042969 C 454.734375 228.832031 461.433594 230.625 468.503906 230.34375 C 469.824219 230.34375 470.015625 230.4375 470.109375 231.851562 C 470.203125 233.078125 470.390625 234.304688 470.578125 235.53125 L 470.675781 236.285156 L 470.769531 236.566406 C 470.863281 236.851562 471.050781 237.132812 471.144531 237.417969 C 475.011719 248.355469 473.976562 254.957031 467.5625 260.050781 C 465.863281 261.464844 463.695312 262.503906 460.960938 263.351562 L 460.675781 263.445312 C 459.546875 264.105469 457.566406 264.671875 454.925781 265.519531 L 454.734375 265.613281 C 450.207031 267.03125 446.246094 267.5 442.285156 267.03125 C 440.023438 266.746094 437.570312 267.59375 435.496094 269.386719 C 433.328125 271.273438 432.007812 273.820312 431.914062 276.367188 C 431.722656 282.402344 437.003906 282.875 439.742188 283.15625 L 439.835938 283.15625 C 447.285156 283.816406 454.074219 281.363281 458.507812 279.382812 C 463.976562 276.933594 469.070312 273.820312 473.976562 270.707031 C 475.390625 269.765625 476.898438 268.914062 478.3125 267.972656 C 481.238281 266.179688 482.746094 263.351562 483.972656 260.804688 C 484.066406 260.617188 484.160156 260.523438 484.253906 260.429688 C 484.347656 260.710938 484.347656 260.898438 484.445312 261.183594 C 486.328125 265.519531 488.5 271.367188 488.96875 277.402344 C 490.007812 289.097656 482.558594 299.851562 470.109375 304.847656 C 466.714844 306.261719 463.128906 306.828125 459.355469 307.488281 C 456.339844 307.960938 453.320312 308.527344 450.304688 309.46875 L 450.019531 309.5625 C 446.246094 310.695312 442.476562 311.921875 439.175781 314.5625 C 434.835938 318.050781 432.855469 323.617188 434.175781 328.144531 C 435.496094 332.671875 439.742188 335.5 445.777344 335.972656 C 457.09375 336.914062 465.957031 331.820312 473.222656 326.632812 C 479.726562 322.011719 485.007812 316.070312 489.441406 310.601562 C 489.535156 311.074219 489.535156 311.640625 489.535156 312.300781 C 489.535156 312.863281 489.535156 313.429688 489.628906 314.089844 C 490.761719 326.632812 489.726562 338.988281 486.328125 351.910156 C 483.21875 363.699219 474.636719 370.675781 466.617188 375.863281 C 446.8125 388.785156 424.367188 391.804688 398.148438 385.011719 C 394.941406 384.164062 391.734375 383.222656 388.71875 382.277344 C 382.398438 380.296875 375.984375 378.316406 369.195312 377.5625 C 358.726562 376.335938 346.75 376.429688 337.222656 385.765625 C 333.167969 389.917969 331.1875 395.105469 331.941406 400.101562 Z M 143.320312 438.109375 C 142 436.695312 139.546875 434.148438 136.246094 435.089844 C 133.703125 435.847656 132.476562 438.109375 132.476562 441.882812 C 132.757812 447.445312 134.265625 452.726562 136.71875 457.632812 C 138.324219 460.839844 140.398438 464.328125 144.359375 466.402344 C 144.453125 466.402344 144.453125 466.496094 144.546875 466.496094 C 147.09375 467.722656 149.734375 467.722656 151.808594 466.402344 C 154.074219 465.082031 155.296875 462.628906 155.394531 459.707031 C 155.394531 458.007812 154.921875 456.59375 154.449219 455.179688 C 152.375 449.425781 148.886719 444.050781 143.320312 438.109375 Z M 149.921875 463.386719 C 148.886719 464.046875 147.472656 463.949219 145.960938 463.289062 C 143.226562 461.875 141.625 459.519531 139.832031 456.125 C 137.566406 451.691406 136.246094 446.878906 135.964844 441.882812 C 135.964844 439.054688 136.8125 438.769531 137.097656 438.675781 C 137.472656 438.582031 137.851562 438.582031 138.324219 438.863281 C 138.886719 439.148438 139.546875 439.714844 140.492188 440.75 C 145.679688 446.316406 148.980469 451.3125 150.867188 456.6875 C 151.335938 457.914062 151.621094 458.859375 151.621094 459.988281 C 151.714844 461.40625 151.054688 462.726562 149.921875 463.386719 Z M 251.402344 491.773438 C 246.121094 491.019531 242.066406 493 239.988281 497.242188 C 238.105469 501.203125 239.328125 504.976562 243.761719 508.558594 C 247.25 511.390625 251.117188 513.464844 254.230469 515.257812 C 255.078125 515.726562 255.929688 516.199219 256.777344 516.671875 C 258.378906 517.519531 259.890625 518.273438 261.210938 519.027344 C 263.097656 520.066406 264.886719 521.007812 266.585938 521.859375 C 267.339844 522.234375 268 522.519531 268.753906 522.894531 C 275.167969 525.820312 282.335938 526.289062 289.976562 524.214844 C 293.277344 523.273438 295.539062 521.007812 296.386719 517.613281 C 297.332031 513.558594 294.125 511.957031 292.425781 511.105469 L 291.859375 510.824219 C 280.449219 504.882812 269.886719 499.507812 259.511719 494.128906 C 256.683594 492.621094 253.757812 492.054688 251.402344 491.773438 Z M 290.824219 514.3125 C 292.804688 515.351562 293.085938 515.632812 292.804688 516.671875 C 292.332031 518.652344 291.105469 519.972656 289.03125 520.539062 C 282.148438 522.421875 276.015625 522.046875 270.261719 519.40625 C 267.90625 518.367188 265.640625 517.140625 262.90625 515.632812 C 261.492188 514.878906 260.078125 514.125 258.476562 513.277344 C 257.71875 512.804688 256.871094 512.332031 256.023438 511.859375 C 253.003906 510.257812 249.328125 508.183594 246.121094 505.542969 C 242.253906 502.429688 242.628906 500.261719 243.386719 498.75 C 244.707031 495.921875 247.25 494.789062 250.929688 495.355469 C 253.003906 495.640625 255.457031 496.109375 257.71875 497.242188 C 257.816406 497.242188 257.816406 497.335938 257.910156 497.335938 C 268.28125 502.617188 278.847656 508.089844 290.257812 513.9375 Z M 223.863281 378.695312 C 221.222656 378.316406 219.148438 379.824219 217.636719 383.316406 C 215.65625 388.503906 214.714844 393.972656 214.996094 399.441406 C 215.1875 403.027344 215.5625 407.082031 218.394531 410.664062 C 219.242188 411.703125 220.183594 412.550781 221.316406 413.117188 C 222.542969 413.683594 223.863281 413.964844 225.183594 413.777344 C 227.730469 413.496094 229.898438 411.796875 231.21875 409.15625 C 231.972656 407.648438 232.066406 406.136719 232.257812 404.628906 C 232.726562 398.5 231.785156 391.992188 229.144531 384.351562 C 228.484375 382.5625 227.351562 379.257812 223.863281 378.695312 Z M 228.484375 404.347656 C 228.390625 405.667969 228.296875 406.703125 227.824219 407.648438 C 227.164062 409.0625 226.03125 410.003906 224.710938 410.195312 C 223.484375 410.289062 222.164062 409.722656 221.222656 408.496094 C 219.335938 406.042969 218.863281 403.214844 218.675781 399.441406 C 218.394531 394.445312 219.242188 389.539062 221.035156 384.917969 C 222.164062 382.277344 223.015625 382.464844 223.390625 382.464844 C 223.578125 382.464844 223.675781 382.5625 223.863281 382.65625 C 224.523438 383.03125 225.089844 383.882812 225.65625 385.765625 C 228.105469 392.746094 228.957031 398.6875 228.484375 404.347656 Z M 372.496094 362.09375 C 362.5 370.773438 322.605469 387.652344 315.4375 368.886719 C 304.402344 380.769531 293.179688 392.464844 281.863281 403.96875 C 268.1875 417.925781 254.417969 433.015625 238.765625 444.898438 C 234.800781 447.917969 236.5 439.996094 238.105469 438.488281 C 263.566406 413.117188 289.878906 388.691406 314.777344 362.660156 C 314.871094 362.378906 315.0625 362.1875 315.25 362.1875 C 320.34375 356.90625 325.339844 351.53125 330.339844 346.0625 C 336.46875 339.273438 342.601562 332.105469 349.011719 324.84375 C 339.394531 307.207031 340.148438 283.722656 345.617188 264.953125 C 345.808594 264.390625 347.597656 261.464844 347.597656 263.445312 C 347.503906 273.535156 345.429688 283.441406 346.089844 293.53125 C 346.65625 303.339844 348.636719 312.769531 351.371094 322.296875 C 365.707031 306.167969 381.363281 290.511719 399.941406 280.894531 C 403.621094 262.410156 421.445312 243.546875 438.421875 237.320312 C 438.796875 237.226562 438.230469 238.734375 437.949219 238.925781 C 420.878906 247.601562 407.015625 261.9375 401.074219 280.328125 C 401.921875 279.855469 402.863281 279.480469 403.714844 279.007812 C 415.03125 269.199219 430.027344 261.464844 444.363281 257.597656 C 444.644531 257.503906 444.265625 258.449219 444.078125 258.542969 C 431.347656 264.484375 419.558594 271.179688 407.675781 278.347656 C 407.484375 278.914062 407.109375 279.480469 406.921875 279.667969 C 374.195312 299.191406 350.992188 330.125 325.71875 357.851562 C 323.453125 360.304688 321.191406 362.753906 318.929688 365.207031 C 321.472656 367.472656 323.832031 369.640625 327.605469 370.300781 C 333.453125 371.242188 339.394531 370.773438 345.148438 369.261719 C 354.765625 366.8125 363.632812 361.527344 373.25 359.359375 C 374.195312 358.984375 372.78125 361.90625 372.496094 362.09375 Z M 214.335938 465.554688 C 210.1875 474.796875 203.492188 482.8125 197.457031 490.828125 C 191.136719 499.316406 186.136719 509.21875 179.347656 517.332031 C 178.78125 517.992188 178.214844 517.707031 178.40625 516.859375 C 180.101562 508.558594 185.476562 501.296875 190.570312 494.507812 C 192.269531 493.660156 193.304688 492.148438 193.683594 490.359375 C 200.191406 481.585938 206.699219 472.722656 213.488281 464.234375 C 214.621094 462.914062 214.714844 464.707031 214.335938 465.554688 Z M 290.917969 546.851562 C 303.273438 573.351562 328.078125 578.914062 354.859375 574.484375 C 355.050781 574.484375 354.765625 575.238281 354.578125 575.238281 C 328.546875 585.234375 300.066406 574.765625 290.164062 548.171875 C 289.976562 547.792969 290.824219 546.566406 290.917969 546.851562 Z M 258.191406 341.253906 C 246.96875 304.1875 255.269531 262.785156 274.601562 229.871094 C 274.886719 229.398438 274.980469 229.871094 274.789062 230.25 C 255.363281 264.199219 250.550781 302.773438 258.570312 340.78125 C 258.570312 340.96875 258.285156 341.535156 258.191406 341.253906 Z M 202.925781 257.503906 C 183.121094 294.191406 171.332031 338.894531 182.742188 379.636719 C 182.835938 379.824219 182.367188 380.675781 182.175781 380.390625 C 170.953125 364.546875 175.953125 336.535156 179.820312 318.996094 C 184.535156 297.492188 191.515625 276.367188 202.738281 257.222656 C 202.925781 256.9375 203.019531 257.222656 202.925781 257.503906 Z M 177.933594 324.371094 C 169.824219 305.792969 173.59375 281.269531 183.59375 264.011719 C 183.78125 263.632812 183.96875 263.917969 183.78125 264.199219 C 174.347656 283.15625 173.785156 303.339844 178.40625 323.617188 C 178.5 323.804688 178.027344 324.652344 177.933594 324.371094 Z M 125.589844 438.863281 C 125.777344 439.242188 125.214844 440.46875 124.835938 440.089844 C 98.902344 413.964844 113.894531 361.527344 124.929688 331.820312 C 125.117188 331.445312 125.589844 331.160156 125.402344 331.820312 C 115.3125 368.695312 106.726562 403.308594 125.589844 438.863281 Z M 418.992188 363.226562 C 428.234375 367.28125 437.855469 369.921875 447.472656 372.753906 C 447.664062 372.847656 447.285156 373.789062 447.003906 373.789062 C 436.816406 372.847656 426.726562 370.960938 417.578125 366.246094 C 409.65625 362.1875 404.46875 357.003906 397.867188 351.53125 C 397.582031 351.34375 398.148438 350.210938 398.433594 350.304688 C 402.582031 351.15625 403.429688 353.984375 406.730469 356.152344 C 410.691406 358.605469 414.652344 361.246094 418.992188 363.226562 Z M 418.992188 363.226562 " fill-opacity="1" fill-rule="nonzero"/></svg>