<svg xmlns="http://www.w3.org/2000/svg" xmlns:xlink="http://www.w3.org/1999/xlink" width="1366" zoomAndPan="magnify" viewBox="0 0 1024.5 576" height="768" preserveAspectRatio="xMidYMid meet" version="1.0"><defs><filter x="0%" y="0%" width="100%" height="100%" id="58fbf3e9ce"><feColorMatrix values="0 0 0 0 1 0 0 0 0 1 0 0 0 0 1 0 0 0 1 0" color-interpolation-filters="sRGB"/></filter><clipPath id="fb498f569c"><path d="M 157 26.191406 L 867 26.191406 L 867 549.4375 L 157 549.4375 Z M 157 26.191406 " clip-rule="nonzero"/></clipPath><clipPath id="d4eafbcb12"><path d="M 276.589844 284 L 349.976562 284 L 349.976562 359.167969 L 276.589844 359.167969 Z M 276.589844 284 " clip-rule="nonzero"/></clipPath><clipPath id="839e14e1a3"><path d="M 349.929688 310.414062 C 350.003906 334.027344 347.230469 340.097656 343.707031 344.671875 C 340.109375 349.246094 334.863281 353.367188 329.539062 355.765625 C 324.292969 358.164062 317.695312 359.363281 311.921875 358.992188 C 306.074219 358.617188 299.777344 356.667969 294.757812 353.667969 C 289.808594 350.667969 285.085938 345.945312 282.085938 341 C 279.089844 335.976562 277.140625 329.605469 276.765625 323.832031 C 276.390625 318.058594 277.589844 311.464844 279.988281 306.214844 C 282.386719 300.894531 286.511719 295.644531 291.082031 292.046875 C 295.65625 288.523438 301.726562 285.75 307.425781 284.703125 C 313.121094 283.652344 319.792969 284.101562 325.339844 285.824219 C 330.886719 287.550781 340.707031 295.046875 340.707031 295.046875 " clip-rule="nonzero"/></clipPath><mask id="b362f903d9"><g filter="url(#58fbf3e9ce)"><rect x="-102.45" width="1229.4" fill="#000000" y="-57.6" height="691.2" fill-opacity="0.2"/></g></mask><clipPath id="7929b0ded8"><path d="M 0.589844 0 L 73.976562 0 L 73.976562 75.167969 L 0.589844 75.167969 Z M 0.589844 0 " clip-rule="nonzero"/></clipPath><clipPath id="04f3feae33"><path d="M 73.929688 26.414062 C 74.003906 50.027344 71.230469 56.097656 67.707031 60.671875 C 64.109375 65.246094 58.863281 69.367188 53.539062 71.765625 C 48.292969 74.164062 41.695312 75.363281 35.921875 74.992188 C 30.074219 74.617188 23.777344 72.667969 18.757812 69.667969 C 13.808594 66.667969 9.085938 61.945312 6.085938 57 C 3.089844 51.976562 1.140625 45.605469 0.765625 39.832031 C 0.390625 34.058594 1.589844 27.464844 3.988281 22.214844 C 6.386719 16.894531 10.511719 11.644531 15.082031 8.046875 C 19.65625 4.523438 25.726562 1.75 31.425781 0.703125 C 37.121094 -0.347656 43.792969 0.101562 49.339844 1.824219 C 54.886719 3.550781 64.707031 11.046875 64.707031 11.046875 " clip-rule="nonzero"/></clipPath><clipPath id="2ea0e1e932"><rect x="0" width="74" y="0" height="76"/></clipPath><clipPath id="7a0b160a2f"><path d="M 561.300781 376.554688 L 635 376.554688 L 635 451.820312 L 561.300781 451.820312 Z M 561.300781 376.554688 " clip-rule="nonzero"/></clipPath><clipPath id="e47e15f457"><path d="M 634.714844 403.070312 C 634.714844 426.683594 632.015625 432.753906 628.417969 437.328125 C 624.820312 441.898438 619.574219 446.023438 614.324219 448.421875 C 609.003906 450.746094 602.40625 451.945312 596.632812 451.644531 C 590.863281 451.269531 584.488281 449.320312 579.542969 446.246094 C 574.519531 443.25 569.796875 438.601562 566.796875 433.578125 C 563.800781 428.632812 561.851562 422.257812 561.476562 416.488281 C 561.175781 410.640625 562.375 404.117188 564.699219 398.796875 C 567.097656 393.546875 571.222656 388.300781 575.792969 384.703125 C 580.367188 381.105469 586.4375 378.40625 592.136719 377.355469 C 597.832031 376.308594 604.503906 376.683594 610.050781 378.40625 C 615.597656 380.128906 625.417969 387.703125 625.417969 387.703125 " clip-rule="nonzero"/></clipPath><mask id="ad23c866a4"><g filter="url(#58fbf3e9ce)"><rect x="-102.45" width="1229.4" fill="#000000" y="-57.6" height="691.2" fill-opacity="0.2"/></g></mask><clipPath id="5c0ddea81d"><path d="M 0.300781 0.554688 L 73.730469 0.554688 L 73.730469 75.820312 L 0.300781 75.820312 Z M 0.300781 0.554688 " clip-rule="nonzero"/></clipPath><clipPath id="f0057161c3"><path d="M 73.714844 27.070312 C 73.714844 50.683594 71.015625 56.753906 67.417969 61.328125 C 63.820312 65.898438 58.574219 70.023438 53.324219 72.421875 C 48.003906 74.746094 41.40625 75.945312 35.632812 75.644531 C 29.863281 75.269531 23.488281 73.320312 18.542969 70.246094 C 13.519531 67.25 8.796875 62.601562 5.796875 57.578125 C 2.800781 52.632812 0.851562 46.257812 0.476562 40.488281 C 0.175781 34.640625 1.375 28.117188 3.699219 22.796875 C 6.097656 17.546875 10.222656 12.300781 14.792969 8.703125 C 19.367188 5.105469 25.4375 2.40625 31.136719 1.355469 C 36.832031 0.308594 43.503906 0.683594 49.050781 2.40625 C 54.597656 4.128906 64.417969 11.703125 64.417969 11.703125 " clip-rule="nonzero"/></clipPath><clipPath id="6dd0c4d6a9"><rect x="0" width="74" y="0" height="76"/></clipPath><clipPath id="f1d672ee17"><path d="M 671.179688 256.621094 L 747.351562 256.621094 L 747.351562 332.796875 L 671.179688 332.796875 Z M 671.179688 256.621094 " clip-rule="nonzero"/></clipPath><clipPath id="d7af581f7d"><path d="M 735.167969 267.609375 C 745.285156 282.304688 746.410156 286.277344 746.933594 290.25 C 747.535156 294.148438 747.386719 298.421875 746.636719 302.316406 C 745.886719 306.292969 744.386719 310.265625 742.4375 313.710938 C 740.488281 317.234375 737.863281 320.535156 734.867188 323.15625 C 731.867188 325.855469 728.269531 328.105469 724.671875 329.679688 C 721 331.253906 716.875 332.304688 712.902344 332.601562 C 708.929688 332.976562 704.65625 332.601562 700.757812 331.628906 C 696.933594 330.652344 693.035156 329.003906 689.664062 326.832031 C 686.289062 324.730469 683.140625 321.882812 680.59375 318.734375 C 678.117188 315.660156 676.019531 311.914062 674.671875 308.164062 C 673.246094 304.492188 672.496094 300.292969 672.347656 296.320312 C 672.273438 292.273438 672.796875 288.074219 673.996094 284.25 C 675.195312 280.429688 677.070312 276.679688 679.394531 273.382812 C 681.71875 270.160156 684.714844 267.160156 687.9375 264.835938 C 691.238281 262.511719 694.984375 260.636719 698.808594 259.4375 C 702.632812 258.238281 706.828125 257.714844 710.878906 257.789062 C 714.851562 257.941406 719.050781 258.6875 722.796875 260.113281 C 726.546875 261.464844 730.21875 263.5625 733.292969 266.035156 C 736.441406 268.585938 739.289062 271.734375 741.386719 275.105469 C 743.5625 278.480469 745.210938 282.378906 746.1875 286.277344 C 747.160156 290.097656 747.535156 294.371094 747.160156 298.34375 C 746.859375 302.316406 745.8125 306.441406 744.238281 310.113281 C 742.664062 313.789062 740.414062 317.3125 737.714844 320.308594 C 735.089844 323.308594 731.71875 325.929688 728.269531 327.878906 C 724.820312 329.90625 720.773438 331.328125 716.875 332.078125 C 712.976562 332.828125 708.703125 332.976562 704.730469 332.453125 C 700.832031 331.855469 696.859375 330.730469 693.1875 328.855469 C 689.289062 326.90625 685.089844 323.457031 682.167969 320.609375 C 679.84375 318.359375 678.195312 316.109375 676.621094 313.5625 C 675.046875 310.9375 673.769531 308.164062 672.871094 305.316406 C 672.046875 302.46875 671.449219 299.394531 671.296875 296.394531 C 671.074219 293.398438 671.296875 290.324219 671.820312 287.398438 C 672.347656 284.402344 673.246094 281.476562 674.519531 278.78125 C 675.71875 276.007812 677.371094 273.382812 679.167969 270.984375 C 681.042969 268.660156 683.214844 266.484375 685.539062 264.613281 C 687.9375 262.8125 690.5625 261.164062 693.335938 259.964844 C 696.035156 258.765625 698.957031 257.789062 701.957031 257.265625 C 704.882812 256.742188 707.953125 256.515625 710.953125 256.742188 C 713.953125 256.890625 716.949219 257.488281 719.875 258.390625 C 722.722656 259.214844 725.496094 260.488281 728.042969 262.0625 C 730.667969 263.636719 735.167969 267.609375 735.167969 267.609375 " clip-rule="nonzero"/></clipPath><mask id="e7c93056f3"><g filter="url(#58fbf3e9ce)"><rect x="-102.45" width="1229.4" fill="#000000" y="-57.6" height="691.2" fill-opacity="0.2"/></g></mask><clipPath id="2e04706f0f"><path d="M 0.179688 0.621094 L 76.351562 0.621094 L 76.351562 76.796875 L 0.179688 76.796875 Z M 0.179688 0.621094 " clip-rule="nonzero"/></clipPath><clipPath id="488d132068"><path d="M 64.167969 11.609375 C 74.285156 26.304688 75.410156 30.277344 75.933594 34.25 C 76.535156 38.148438 76.386719 42.421875 75.636719 46.316406 C 74.886719 50.292969 73.386719 54.265625 71.4375 57.710938 C 69.488281 61.234375 66.863281 64.535156 63.867188 67.15625 C 60.867188 69.855469 57.269531 72.105469 53.671875 73.679688 C 50 75.253906 45.875 76.304688 41.902344 76.601562 C 37.929688 76.976562 33.65625 76.601562 29.757812 75.628906 C 25.933594 74.652344 22.035156 73.003906 18.664062 70.832031 C 15.289062 68.730469 12.140625 65.882812 9.59375 62.734375 C 7.117188 59.660156 5.019531 55.914062 3.671875 52.164062 C 2.246094 48.492188 1.496094 44.292969 1.347656 40.320312 C 1.273438 36.273438 1.796875 32.074219 2.996094 28.25 C 4.195312 24.429688 6.070312 20.679688 8.394531 17.382812 C 10.71875 14.160156 13.714844 11.160156 16.9375 8.835938 C 20.238281 6.511719 23.984375 4.636719 27.808594 3.4375 C 31.632812 2.238281 35.828125 1.714844 39.878906 1.789062 C 43.851562 1.941406 48.050781 2.6875 51.796875 4.113281 C 55.546875 5.464844 59.21875 7.5625 62.292969 10.035156 C 65.441406 12.585938 68.289062 15.734375 70.386719 19.105469 C 72.5625 22.480469 74.210938 26.378906 75.1875 30.277344 C 76.160156 34.097656 76.535156 38.371094 76.160156 42.34375 C 75.859375 46.316406 74.8125 50.441406 73.238281 54.113281 C 71.664062 57.789062 69.414062 61.3125 66.714844 64.308594 C 64.089844 67.308594 60.71875 69.929688 57.269531 71.878906 C 53.820312 73.90625 49.773438 75.328125 45.875 76.078125 C 41.976562 76.828125 37.703125 76.976562 33.730469 76.453125 C 29.832031 75.855469 25.859375 74.730469 22.1875 72.855469 C 18.289062 70.90625 14.089844 67.457031 11.167969 64.609375 C 8.84375 62.359375 7.195312 60.109375 5.621094 57.5625 C 4.046875 54.9375 2.769531 52.164062 1.871094 49.316406 C 1.046875 46.46875 0.449219 43.394531 0.296875 40.394531 C 0.0742188 37.398438 0.296875 34.324219 0.820312 31.398438 C 1.347656 28.402344 2.246094 25.476562 3.519531 22.78125 C 4.71875 20.007812 6.371094 17.382812 8.167969 14.984375 C 10.042969 12.660156 12.214844 10.484375 14.539062 8.613281 C 16.9375 6.8125 19.5625 5.164062 22.335938 3.964844 C 25.035156 2.765625 27.957031 1.789062 30.957031 1.265625 C 33.882812 0.742188 36.953125 0.515625 39.953125 0.742188 C 42.953125 0.890625 45.949219 1.488281 48.875 2.390625 C 51.722656 3.214844 54.496094 4.488281 57.042969 6.0625 C 59.667969 7.636719 64.167969 11.609375 64.167969 11.609375 " clip-rule="nonzero"/></clipPath><clipPath id="c6e7f7e841"><rect x="0" width="77" y="0" height="77"/></clipPath><clipPath id="6d6315382a"><path d="M 395.480469 110.058594 L 469 110.058594 L 469 185.328125 L 395.480469 185.328125 Z M 395.480469 110.058594 " clip-rule="nonzero"/></clipPath><clipPath id="b58372073e"><path d="M 468.894531 136.648438 C 468.894531 160.261719 466.199219 166.335938 462.597656 170.90625 C 459 175.480469 453.753906 179.527344 448.507812 181.925781 C 443.183594 184.324219 436.660156 185.523438 430.816406 185.148438 C 425.042969 184.851562 418.671875 182.828125 413.722656 179.828125 C 408.699219 176.828125 404.054688 172.105469 401.054688 167.160156 C 397.980469 162.210938 396.03125 155.839844 395.65625 149.992188 C 395.355469 144.21875 396.554688 137.699219 398.957031 132.375 C 401.277344 127.054688 405.402344 121.804688 409.976562 118.28125 C 414.546875 114.683594 420.621094 111.910156 426.316406 110.863281 C 432.089844 109.8125 438.6875 110.261719 444.234375 111.984375 C 449.78125 113.710938 459.601562 121.28125 459.601562 121.28125 " clip-rule="nonzero"/></clipPath><mask id="3f1bcdc8f0"><g filter="url(#58fbf3e9ce)"><rect x="-102.45" width="1229.4" fill="#000000" y="-57.6" height="691.2" fill-opacity="0.2"/></g></mask><clipPath id="44070610e4"><path d="M 0.480469 0.0585938 L 73.972656 0.0585938 L 73.972656 75.328125 L 0.480469 75.328125 Z M 0.480469 0.0585938 " clip-rule="nonzero"/></clipPath><clipPath id="ff6f7b96be"><path d="M 73.894531 26.648438 C 73.894531 50.261719 71.199219 56.335938 67.597656 60.90625 C 64 65.480469 58.753906 69.527344 53.507812 71.925781 C 48.183594 74.324219 41.660156 75.523438 35.816406 75.148438 C 30.042969 74.851562 23.671875 72.828125 18.722656 69.828125 C 13.699219 66.828125 9.054688 62.105469 6.054688 57.160156 C 2.980469 52.210938 1.03125 45.839844 0.65625 39.992188 C 0.355469 34.21875 1.554688 27.699219 3.957031 22.375 C 6.277344 17.054688 10.402344 11.804688 14.976562 8.28125 C 19.546875 4.683594 25.621094 1.910156 31.316406 0.863281 C 37.089844 -0.1875 43.6875 0.261719 49.234375 1.984375 C 54.78125 3.710938 64.601562 11.28125 64.601562 11.28125 " clip-rule="nonzero"/></clipPath><clipPath id="5d4776ec9f"><rect x="0" width="74" y="0" height="76"/></clipPath><clipPath id="03e70cc887"><path d="M 626.519531 80.371094 L 699.90625 80.371094 L 699.90625 155.640625 L 626.519531 155.640625 Z M 626.519531 80.371094 " clip-rule="nonzero"/></clipPath><clipPath id="fabadb9978"><path d="M 699.859375 106.886719 C 699.933594 130.5 697.160156 136.574219 693.5625 141.148438 C 690.039062 145.71875 684.789062 149.84375 679.46875 152.242188 C 674.144531 154.566406 667.625 155.765625 661.851562 155.464844 C 656.003906 155.089844 649.632812 153.140625 644.683594 150.140625 C 639.738281 147.070312 635.015625 142.421875 632.015625 137.398438 C 629.019531 132.449219 626.992188 126.078125 626.695312 120.308594 C 626.320312 114.460938 627.519531 107.9375 629.917969 102.617188 C 632.316406 97.367188 636.4375 92.121094 641.011719 88.523438 C 645.585938 84.925781 651.65625 82.226562 657.355469 81.175781 C 663.050781 80.125 669.722656 80.5 675.269531 82.226562 C 680.816406 83.949219 690.5625 91.519531 690.5625 91.519531 " clip-rule="nonzero"/></clipPath><mask id="32f127467a"><g filter="url(#58fbf3e9ce)"><rect x="-102.45" width="1229.4" fill="#000000" y="-57.6" height="691.2" fill-opacity="0.2"/></g></mask><clipPath id="9ccc3179f0"><path d="M 0.519531 0.371094 L 73.90625 0.371094 L 73.90625 75.640625 L 0.519531 75.640625 Z M 0.519531 0.371094 " clip-rule="nonzero"/></clipPath><clipPath id="9dfac38ca4"><path d="M 73.859375 26.886719 C 73.933594 50.5 71.160156 56.574219 67.5625 61.148438 C 64.039062 65.71875 58.789062 69.84375 53.46875 72.242188 C 48.144531 74.566406 41.625 75.765625 35.851562 75.464844 C 30.003906 75.089844 23.632812 73.140625 18.683594 70.140625 C 13.738281 67.070312 9.015625 62.421875 6.015625 57.398438 C 3.019531 52.449219 0.992188 46.078125 0.695312 40.308594 C 0.320312 34.460938 1.519531 27.9375 3.917969 22.617188 C 6.316406 17.367188 10.4375 12.121094 15.011719 8.523438 C 19.585938 4.925781 25.65625 2.226562 31.355469 1.175781 C 37.050781 0.125 43.722656 0.5 49.269531 2.226562 C 54.816406 3.949219 64.5625 11.519531 64.5625 11.519531 " clip-rule="nonzero"/></clipPath><clipPath id="16113f296d"><rect x="0" width="74" y="0" height="76"/></clipPath><clipPath id="05a9afa319"><path d="M 436.664062 356 L 512.949219 356 L 512.949219 431.328125 L 436.664062 431.328125 Z M 436.664062 356 " clip-rule="nonzero"/></clipPath><clipPath id="990c2b3f98"><path d="M 474.292969 431.105469 C 458.550781 427.882812 454.726562 425.859375 451.578125 423.457031 C 448.429688 421.058594 445.507812 417.988281 443.257812 414.6875 C 441.007812 411.390625 439.210938 407.492188 438.160156 403.667969 C 437.113281 399.769531 436.585938 395.574219 436.8125 391.597656 C 437.035156 387.625 437.9375 383.429688 439.433594 379.753906 C 440.933594 376.007812 443.109375 372.410156 445.734375 369.335938 C 448.28125 366.335938 451.503906 363.5625 454.953125 361.539062 C 458.328125 359.441406 462.300781 357.867188 466.199219 357.042969 C 470.09375 356.140625 474.367188 355.917969 478.339844 356.367188 C 482.316406 356.816406 486.363281 357.941406 490.035156 359.589844 C 493.632812 361.3125 497.15625 363.636719 500.007812 366.410156 C 502.929688 369.183594 505.476562 372.558594 507.351562 376.082031 C 509.226562 379.605469 510.574219 383.652344 511.25 387.550781 C 511.925781 391.523438 511.925781 395.722656 511.25 399.695312 C 510.574219 403.59375 509.226562 407.640625 507.351562 411.164062 C 505.476562 414.6875 502.929688 418.0625 500.007812 420.835938 C 497.15625 423.609375 493.632812 425.933594 489.960938 427.65625 C 486.363281 429.304688 482.238281 430.429688 478.339844 430.878906 C 474.367188 431.328125 470.09375 431.105469 466.199219 430.207031 C 462.300781 429.382812 458.328125 427.808594 454.953125 425.707031 C 451.503906 423.683594 448.28125 420.910156 445.65625 417.910156 C 443.109375 414.839844 440.933594 411.164062 439.433594 407.492188 C 437.9375 403.820312 437.035156 399.621094 436.8125 395.648438 C 436.585938 391.675781 437.113281 387.402344 438.160156 383.578125 C 439.210938 379.753906 441.007812 375.855469 443.257812 372.558594 C 445.507812 369.261719 448.429688 366.1875 451.578125 363.789062 C 454.726562 361.390625 458.550781 359.363281 462.300781 358.089844 C 466.046875 356.816406 470.546875 356.292969 474.292969 356.140625 C 477.441406 355.992188 480.367188 356.367188 483.289062 356.964844 C 486.210938 357.566406 489.136719 358.617188 491.835938 359.890625 C 494.535156 361.238281 497.082031 362.886719 499.40625 364.835938 C 501.730469 366.710938 503.828125 368.960938 505.628906 371.359375 C 507.351562 373.832031 508.925781 376.53125 510.050781 379.230469 C 511.175781 382.003906 512 385.003906 512.449219 388 C 512.898438 390.925781 513.050781 394 512.75 396.996094 C 512.449219 399.996094 511.851562 402.992188 510.875 405.84375 C 509.902344 408.691406 508.550781 411.464844 506.902344 414.011719 C 505.253906 416.488281 503.304688 418.886719 501.128906 420.910156 C 498.957031 423.007812 496.40625 424.808594 493.859375 426.308594 C 491.234375 427.730469 488.386719 428.929688 485.464844 429.753906 C 482.613281 430.582031 476.542969 431.105469 476.542969 431.105469 " clip-rule="nonzero"/></clipPath><mask id="63d73569f9"><g filter="url(#58fbf3e9ce)"><rect x="-102.45" width="1229.4" fill="#000000" y="-57.6" height="691.2" fill-opacity="0.2"/></g></mask><clipPath id="6632aaec50"><path d="M 0.664062 0 L 76.949219 0 L 76.949219 75.328125 L 0.664062 75.328125 Z M 0.664062 0 " clip-rule="nonzero"/></clipPath><clipPath id="8dac95b0ae"><path d="M 38.292969 75.105469 C 22.550781 71.882812 18.726562 69.859375 15.578125 67.457031 C 12.429688 65.058594 9.507812 61.988281 7.257812 58.6875 C 5.007812 55.390625 3.210938 51.492188 2.160156 47.667969 C 1.113281 43.769531 0.585938 39.574219 0.8125 35.597656 C 1.035156 31.625 1.9375 27.429688 3.433594 23.753906 C 4.933594 20.007812 7.109375 16.410156 9.734375 13.335938 C 12.28125 10.335938 15.503906 7.5625 18.953125 5.539062 C 22.328125 3.441406 26.300781 1.867188 30.199219 1.042969 C 34.09375 0.140625 38.367188 -0.0820312 42.339844 0.367188 C 46.316406 0.816406 50.363281 1.941406 54.035156 3.589844 C 57.632812 5.3125 61.15625 7.636719 64.007812 10.410156 C 66.929688 13.183594 69.476562 16.558594 71.351562 20.082031 C 73.226562 23.605469 74.574219 27.652344 75.25 31.550781 C 75.925781 35.523438 75.925781 39.722656 75.25 43.695312 C 74.574219 47.59375 73.226562 51.640625 71.351562 55.164062 C 69.476562 58.6875 66.929688 62.0625 64.007812 64.835938 C 61.15625 67.609375 57.632812 69.933594 53.960938 71.65625 C 50.363281 73.304688 46.238281 74.429688 42.339844 74.878906 C 38.367188 75.328125 34.09375 75.105469 30.199219 74.207031 C 26.300781 73.382812 22.328125 71.808594 18.953125 69.707031 C 15.503906 67.683594 12.28125 64.910156 9.65625 61.910156 C 7.109375 58.839844 4.933594 55.164062 3.433594 51.492188 C 1.9375 47.820312 1.035156 43.621094 0.8125 39.648438 C 0.585938 35.675781 1.113281 31.402344 2.160156 27.578125 C 3.210938 23.753906 5.007812 19.855469 7.257812 16.558594 C 9.507812 13.261719 12.429688 10.1875 15.578125 7.789062 C 18.726562 5.390625 22.550781 3.363281 26.300781 2.089844 C 30.046875 0.816406 34.546875 0.292969 38.292969 0.140625 C 41.441406 -0.0078125 44.367188 0.367188 47.289062 0.964844 C 50.210938 1.566406 53.136719 2.617188 55.835938 3.890625 C 58.535156 5.238281 61.082031 6.886719 63.40625 8.835938 C 65.730469 10.710938 67.828125 12.960938 69.628906 15.359375 C 71.351562 17.832031 72.925781 20.53125 74.050781 23.230469 C 75.175781 26.003906 76 29.003906 76.449219 32 C 76.898438 34.925781 77.050781 38 76.75 40.996094 C 76.449219 43.996094 75.851562 46.992188 74.875 49.84375 C 73.902344 52.691406 72.550781 55.464844 70.902344 58.011719 C 69.253906 60.488281 67.304688 62.886719 65.128906 64.910156 C 62.957031 67.007812 60.40625 68.808594 57.859375 70.308594 C 55.234375 71.730469 52.386719 72.929688 49.464844 73.753906 C 46.613281 74.582031 40.542969 75.105469 40.542969 75.105469 " clip-rule="nonzero"/></clipPath><clipPath id="ba6a8fd116"><rect x="0" width="77" y="0" height="76"/></clipPath><clipPath id="9e2bcc63ff"><path d="M 297.15625 392.574219 L 373.441406 392.574219 L 373.441406 467.910156 L 297.15625 467.910156 Z M 297.15625 392.574219 " clip-rule="nonzero"/></clipPath><clipPath id="022c33e9e9"><path d="M 334.785156 467.6875 C 318.96875 464.464844 315.222656 462.441406 312.074219 460.042969 C 308.925781 457.640625 306 454.570312 303.75 451.269531 C 301.503906 447.972656 299.703125 444.074219 298.652344 440.25 C 297.605469 436.425781 297.078125 432.15625 297.304688 428.179688 C 297.53125 424.207031 298.429688 420.011719 299.929688 416.335938 C 301.429688 412.664062 303.601562 408.992188 306.152344 405.917969 C 308.773438 402.917969 311.996094 400.144531 315.445312 398.121094 C 318.820312 396.023438 322.792969 394.449219 326.691406 393.625 C 330.589844 392.722656 334.863281 392.5 338.835938 392.949219 C 342.808594 393.398438 346.855469 394.523438 350.527344 396.171875 C 354.128906 397.894531 357.652344 400.296875 360.5 402.992188 C 363.421875 405.765625 365.972656 409.140625 367.84375 412.664062 C 369.71875 416.1875 371.070312 420.234375 371.742188 424.132812 C 372.417969 428.105469 372.417969 432.378906 371.742188 436.277344 C 371.070312 440.25 369.71875 444.222656 367.84375 447.746094 C 365.972656 451.269531 363.421875 454.71875 360.5 457.417969 C 357.652344 460.191406 354.128906 462.589844 350.453125 464.238281 C 346.855469 465.886719 342.734375 467.011719 338.835938 467.460938 C 334.863281 467.914062 330.589844 467.6875 326.691406 466.789062 C 322.792969 465.964844 318.820312 464.390625 315.445312 462.363281 C 311.996094 460.265625 308.773438 457.492188 306.152344 454.492188 C 303.601562 451.421875 301.429688 447.820312 299.929688 444.074219 C 298.429688 440.402344 297.53125 436.203125 297.304688 432.230469 C 297.078125 428.257812 297.605469 424.058594 298.652344 420.160156 C 299.703125 416.335938 301.503906 412.4375 303.75 409.140625 C 306 405.84375 308.925781 402.769531 312.074219 400.371094 C 315.222656 397.972656 319.042969 395.949219 322.792969 394.671875 C 326.539062 393.398438 331.039062 392.875 334.785156 392.722656 C 337.933594 392.648438 340.859375 392.949219 343.78125 393.546875 C 346.707031 394.148438 349.628906 395.199219 352.328125 396.472656 C 355.027344 397.820312 357.574219 399.46875 359.898438 401.417969 C 362.222656 403.292969 364.320312 405.542969 366.121094 408.015625 C 367.84375 410.414062 369.417969 413.113281 370.542969 415.886719 C 371.667969 418.585938 372.492188 421.585938 372.941406 424.582031 C 373.394531 427.507812 373.542969 430.65625 373.242188 433.578125 C 372.941406 436.578125 372.34375 439.574219 371.367188 442.425781 C 370.394531 445.273438 369.042969 448.046875 367.394531 450.59375 C 365.746094 453.070312 363.796875 455.46875 361.625 457.492188 C 359.449219 459.589844 356.902344 461.390625 354.351562 462.890625 C 351.726562 464.3125 348.878906 465.511719 345.957031 466.339844 C 343.109375 467.164062 337.035156 467.6875 337.035156 467.6875 " clip-rule="nonzero"/></clipPath><mask id="fc6f1c3412"><g filter="url(#58fbf3e9ce)"><rect x="-102.45" width="1229.4" fill="#000000" y="-57.6" height="691.2" fill-opacity="0.2"/></g></mask><clipPath id="6f57d39887"><path d="M 0.15625 0.574219 L 76.441406 0.574219 L 76.441406 75.910156 L 0.15625 75.910156 Z M 0.15625 0.574219 " clip-rule="nonzero"/></clipPath><clipPath id="b6ac75cc6e"><path d="M 37.785156 75.6875 C 21.96875 72.464844 18.222656 70.441406 15.074219 68.042969 C 11.925781 65.640625 9 62.570312 6.75 59.269531 C 4.503906 55.972656 2.703125 52.074219 1.652344 48.25 C 0.605469 44.425781 0.078125 40.15625 0.304688 36.179688 C 0.53125 32.207031 1.429688 28.011719 2.929688 24.335938 C 4.429688 20.664062 6.601562 16.992188 9.152344 13.917969 C 11.773438 10.917969 14.996094 8.144531 18.445312 6.121094 C 21.820312 4.023438 25.792969 2.449219 29.691406 1.625 C 33.589844 0.722656 37.863281 0.5 41.835938 0.949219 C 45.808594 1.398438 49.855469 2.523438 53.527344 4.171875 C 57.128906 5.894531 60.652344 8.296875 63.5 10.992188 C 66.421875 13.765625 68.972656 17.140625 70.84375 20.664062 C 72.71875 24.1875 74.070312 28.234375 74.742188 32.132812 C 75.417969 36.105469 75.417969 40.378906 74.742188 44.277344 C 74.070312 48.25 72.71875 52.222656 70.84375 55.746094 C 68.972656 59.269531 66.421875 62.71875 63.5 65.417969 C 60.652344 68.191406 57.128906 70.589844 53.453125 72.238281 C 49.855469 73.886719 45.734375 75.011719 41.835938 75.460938 C 37.863281 75.914062 33.589844 75.6875 29.691406 74.789062 C 25.792969 73.964844 21.820312 72.390625 18.445312 70.363281 C 14.996094 68.265625 11.773438 65.492188 9.152344 62.492188 C 6.601562 59.421875 4.429688 55.820312 2.929688 52.074219 C 1.429688 48.402344 0.53125 44.203125 0.304688 40.230469 C 0.078125 36.257812 0.605469 32.058594 1.652344 28.160156 C 2.703125 24.335938 4.503906 20.4375 6.75 17.140625 C 9 13.84375 11.925781 10.769531 15.074219 8.371094 C 18.222656 5.972656 22.042969 3.949219 25.792969 2.671875 C 29.539062 1.398438 34.039062 0.875 37.785156 0.722656 C 40.933594 0.648438 43.859375 0.949219 46.78125 1.546875 C 49.707031 2.148438 52.628906 3.199219 55.328125 4.472656 C 58.027344 5.820312 60.574219 7.46875 62.898438 9.417969 C 65.222656 11.292969 67.320312 13.542969 69.121094 16.015625 C 70.84375 18.414062 72.417969 21.113281 73.542969 23.886719 C 74.667969 26.585938 75.492188 29.585938 75.941406 32.582031 C 76.394531 35.507812 76.542969 38.65625 76.242188 41.578125 C 75.941406 44.578125 75.34375 47.574219 74.367188 50.425781 C 73.394531 53.273438 72.042969 56.046875 70.394531 58.59375 C 68.746094 61.070312 66.796875 63.46875 64.625 65.492188 C 62.449219 67.589844 59.902344 69.390625 57.351562 70.890625 C 54.726562 72.3125 51.878906 73.511719 48.957031 74.339844 C 46.109375 75.164062 40.035156 75.6875 40.035156 75.6875 " clip-rule="nonzero"/></clipPath><clipPath id="c62dac4a5f"><rect x="0" width="77" y="0" height="76"/></clipPath><clipPath id="3476233287"><path d="M 200 400.542969 L 273.363281 400.542969 L 273.363281 475.808594 L 200 475.808594 Z M 200 400.542969 " clip-rule="nonzero"/></clipPath><clipPath id="6ae7dd0596"><path d="M 273.316406 427.058594 C 273.390625 450.671875 270.617188 456.742188 267.019531 461.316406 C 263.496094 465.886719 258.25 470.011719 252.925781 472.410156 C 247.605469 474.808594 241.082031 476.007812 235.308594 475.632812 C 229.464844 475.257812 223.089844 473.308594 218.144531 470.3125 C 213.195312 467.3125 208.472656 462.589844 205.476562 457.640625 C 202.476562 452.621094 200.453125 446.246094 200.152344 440.476562 C 199.777344 434.703125 200.976562 428.105469 203.375 422.859375 C 205.773438 417.535156 209.898438 412.289062 214.46875 408.691406 C 219.042969 405.167969 225.113281 402.394531 230.8125 401.34375 C 236.507812 400.296875 243.179688 400.746094 248.730469 402.46875 C 254.277344 404.191406 264.097656 411.691406 264.097656 411.691406 " clip-rule="nonzero"/></clipPath><mask id="c333521fd5"><g filter="url(#58fbf3e9ce)"><rect x="-102.45" width="1229.4" fill="#000000" y="-57.6" height="691.2" fill-opacity="0.2"/></g></mask><clipPath id="1d2f2e687b"><path d="M 0 0.542969 L 73.363281 0.542969 L 73.363281 75.808594 L 0 75.808594 Z M 0 0.542969 " clip-rule="nonzero"/></clipPath><clipPath id="22b295b81b"><path d="M 73.316406 27.058594 C 73.390625 50.671875 70.617188 56.742188 67.019531 61.316406 C 63.496094 65.886719 58.25 70.011719 52.925781 72.410156 C 47.605469 74.808594 41.082031 76.007812 35.308594 75.632812 C 29.464844 75.257812 23.089844 73.308594 18.144531 70.3125 C 13.195312 67.3125 8.472656 62.589844 5.476562 57.640625 C 2.476562 52.621094 0.453125 46.246094 0.152344 40.476562 C -0.222656 34.703125 0.976562 28.105469 3.375 22.859375 C 5.773438 17.535156 9.898438 12.289062 14.46875 8.691406 C 19.042969 5.167969 25.113281 2.394531 30.8125 1.34375 C 36.507812 0.296875 43.179688 0.746094 48.730469 2.46875 C 54.277344 4.191406 64.097656 11.691406 64.097656 11.691406 " clip-rule="nonzero"/></clipPath><clipPath id="0eb4bfabc2"><rect x="0" width="74" y="0" height="76"/></clipPath><clipPath id="4f24578548"><path d="M 210.246094 233.597656 L 283.945312 233.597656 L 283.945312 308.867188 L 210.246094 308.867188 Z M 210.246094 233.597656 " clip-rule="nonzero"/></clipPath><clipPath id="2a09be3be3"><path d="M 283.660156 260.113281 C 283.660156 283.726562 280.960938 289.800781 277.363281 294.371094 C 273.765625 298.945312 268.519531 303.066406 263.195312 305.464844 C 257.949219 307.867188 251.351562 309.066406 245.582031 308.691406 C 239.808594 308.316406 233.4375 306.367188 228.414062 303.367188 C 223.464844 300.367188 218.742188 295.644531 215.746094 290.625 C 212.746094 285.675781 210.796875 279.304688 210.421875 273.53125 C 210.046875 267.761719 211.246094 261.164062 213.644531 255.839844 C 216.042969 250.59375 220.167969 245.347656 224.742188 241.746094 C 229.3125 238.148438 235.386719 235.449219 241.082031 234.402344 C 246.78125 233.351562 253.453125 233.726562 259 235.449219 C 264.546875 237.175781 274.367188 244.746094 274.367188 244.746094 " clip-rule="nonzero"/></clipPath><mask id="f7deec5f0f"><g filter="url(#58fbf3e9ce)"><rect x="-102.45" width="1229.4" fill="#000000" y="-57.6" height="691.2" fill-opacity="0.2"/></g></mask><clipPath id="a47283d4b4"><path d="M 0.246094 0.597656 L 73.78125 0.597656 L 73.78125 75.867188 L 0.246094 75.867188 Z M 0.246094 0.597656 " clip-rule="nonzero"/></clipPath><clipPath id="1a7d0e5e11"><path d="M 73.660156 27.113281 C 73.660156 50.726562 70.960938 56.800781 67.363281 61.371094 C 63.765625 65.945312 58.519531 70.066406 53.195312 72.464844 C 47.949219 74.867188 41.351562 76.066406 35.582031 75.691406 C 29.808594 75.316406 23.4375 73.367188 18.414062 70.367188 C 13.464844 67.367188 8.742188 62.644531 5.746094 57.625 C 2.746094 52.675781 0.796875 46.304688 0.421875 40.53125 C 0.046875 34.761719 1.246094 28.164062 3.644531 22.839844 C 6.042969 17.59375 10.167969 12.347656 14.742188 8.746094 C 19.3125 5.148438 25.386719 2.449219 31.082031 1.402344 C 36.78125 0.351562 43.453125 0.726562 49 2.449219 C 54.546875 4.175781 64.367188 11.746094 64.367188 11.746094 " clip-rule="nonzero"/></clipPath><clipPath id="6682e7c7e2"><rect x="0" width="74" y="0" height="76"/></clipPath></defs><g clip-path="url(#fb498f569c)"><path fill="#2d5971" d="M 797.289062 26.191406 L 226.699219 26.191406 C 187.296875 26.191406 157.746094 58.777344 157.746094 95.148438 L 157.746094 480.84375 C 157.746094 518.734375 188.8125 549.800781 226.699219 549.800781 L 797.289062 549.800781 C 835.175781 549.800781 866.246094 518.734375 866.246094 480.84375 L 866.246094 95.148438 C 866.246094 58.777344 836.691406 26.191406 797.289062 26.191406 Z M 226.699219 52.714844 L 797.289062 52.714844 C 810.929688 52.714844 823.8125 59.535156 832.144531 70.898438 L 563.902344 280.039062 C 532.832031 304.289062 490.398438 304.289062 459.332031 280.039062 L 191.84375 70.898438 C 199.421875 59.535156 212.304688 52.714844 226.699219 52.714844 Z M 839.722656 480.085938 C 839.722656 503.578125 820.78125 522.519531 797.289062 522.519531 L 226.699219 522.519531 C 203.210938 522.519531 184.265625 503.578125 184.265625 480.085938 L 184.265625 98.179688 L 443.417969 300.5 C 483.578125 332.324219 540.410156 332.324219 580.570312 300.5 L 839.722656 98.179688 Z M 839.722656 480.085938 " fill-opacity="1" fill-rule="nonzero"/></g><g clip-path="url(#d4eafbcb12)"><g clip-path="url(#839e14e1a3)"><g mask="url(#b362f903d9)"><g transform="matrix(1, 0, 0, 1, 276, 284)"><g clip-path="url(#2ea0e1e932)"><g clip-path="url(#7929b0ded8)"><g clip-path="url(#04f3feae33)"><rect x="-501.39" width="1475.28" fill="#7dd180" height="829.44" y="-410.72" fill-opacity="1"/></g></g></g></g></g></g></g><g clip-path="url(#7a0b160a2f)"><g clip-path="url(#e47e15f457)"><g mask="url(#ad23c866a4)"><g transform="matrix(1, 0, 0, 1, 561, 376)"><g clip-path="url(#6dd0c4d6a9)"><g clip-path="url(#5c0ddea81d)"><g clip-path="url(#f0057161c3)"><rect x="-786.39" width="1475.28" fill="#7dd180" height="829.44" y="-502.72" fill-opacity="1"/></g></g></g></g></g></g></g><g clip-path="url(#f1d672ee17)"><g clip-path="url(#d7af581f7d)"><g mask="url(#e7c93056f3)"><g transform="matrix(1, 0, 0, 1, 671, 256)"><g clip-path="url(#c6e7f7e841)"><g clip-path="url(#2e04706f0f)"><g clip-path="url(#488d132068)"><rect x="-896.39" width="1475.28" fill="#7dd180" height="829.44" y="-382.72" fill-opacity="1"/></g></g></g></g></g></g></g><g clip-path="url(#6d6315382a)"><g clip-path="url(#b58372073e)"><g mask="url(#3f1bcdc8f0)"><g transform="matrix(1, 0, 0, 1, 395, 110)"><g clip-path="url(#5d4776ec9f)"><g clip-path="url(#44070610e4)"><g clip-path="url(#ff6f7b96be)"><rect x="-620.39" width="1475.28" fill="#7dd180" height="829.44" y="-236.72" fill-opacity="1"/></g></g></g></g></g></g></g><g clip-path="url(#03e70cc887)"><g clip-path="url(#fabadb9978)"><g mask="url(#32f127467a)"><g transform="matrix(1, 0, 0, 1, 626, 80)"><g clip-path="url(#16113f296d)"><g clip-path="url(#9ccc3179f0)"><g clip-path="url(#9dfac38ca4)"><rect x="-851.39" width="1475.28" fill="#7dd180" height="829.44" y="-206.72" fill-opacity="1"/></g></g></g></g></g></g></g><g clip-path="url(#05a9afa319)"><g clip-path="url(#990c2b3f98)"><g mask="url(#63d73569f9)"><g transform="matrix(1, 0, 0, 1, 436, 356)"><g clip-path="url(#ba6a8fd116)"><g clip-path="url(#6632aaec50)"><g clip-path="url(#8dac95b0ae)"><rect x="-661.39" width="1475.28" fill="#7dd180" height="829.44" y="-482.72" fill-opacity="1"/></g></g></g></g></g></g></g><g clip-path="url(#9e2bcc63ff)"><g clip-path="url(#022c33e9e9)"><g mask="url(#fc6f1c3412)"><g transform="matrix(1, 0, 0, 1, 297, 392)"><g clip-path="url(#c62dac4a5f)"><g clip-path="url(#6f57d39887)"><g clip-path="url(#b6ac75cc6e)"><rect x="-522.39" width="1475.28" fill="#7dd180" height="829.44" y="-518.72" fill-opacity="1"/></g></g></g></g></g></g></g><g clip-path="url(#3476233287)"><g clip-path="url(#6ae7dd0596)"><g mask="url(#c333521fd5)"><g transform="matrix(1, 0, 0, 1, 200, 400)"><g clip-path="url(#0eb4bfabc2)"><g clip-path="url(#1d2f2e687b)"><g clip-path="url(#22b295b81b)"><rect x="-425.39" width="1475.28" fill="#7dd180" height="829.44" y="-526.72" fill-opacity="1"/></g></g></g></g></g></g></g><g clip-path="url(#4f24578548)"><g clip-path="url(#2a09be3be3)"><g mask="url(#f7deec5f0f)"><g transform="matrix(1, 0, 0, 1, 210, 233)"><g clip-path="url(#6682e7c7e2)"><g clip-path="url(#a47283d4b4)"><g clip-path="url(#1a7d0e5e11)"><rect x="-435.39" width="1475.28" fill="#7dd180" height="829.44" y="-359.72" fill-opacity="1"/></g></g></g></g></g></g></g></svg>